<svg xmlns="http://www.w3.org/2000/svg" viewBox="0 0 283 174" width="100%" height="100%">
  <path d="M 10.10 39.50 L 6.15 49.00 L 4.20 55.25 L 3.90 57.25 L 3.15 59.00 L 2.85 62.00 L 2.10 64.00 L 2.00 67.25 L 1.00 71.25 L 1.00 76.75 L 0.75 78.00 L 0.65 172.00 L 1.25 172.80 L 20.75 173.00 L 21.45 172.80 L 21.75 172.25 L 21.75 86.75 L 22.00 81.25 L 22.75 73.25 L 23.50 70.25 L 23.90 66.75 L 24.60 65.00 L 24.85 62.75 L 25.65 61.00 L 25.85 59.25 L 29.05 51.25 L 32.10 45.50 L 36.10 39.50 L 40.65 34.45 L 46.00 29.90 L 52.50 25.95 L 60.00 22.90 L 62.00 22.65 L 64.25 21.75 L 66.75 21.75 L 71.25 20.75 L 79.50 20.75 L 84.50 21.75 L 87.50 21.85 L 89.25 22.65 L 91.25 22.85 L 97.00 25.05 L 104.50 29.10 L 111.25 34.50 L 115.85 39.50 L 118.10 42.50 L 121.85 48.50 L 125.05 55.50 L 127.60 63.00 L 129.00 68.75 L 129.15 71.50 L 130.00 74.00 L 130.00 79.50 L 130.50 83.50 L 130.50 171.75 L 130.85 172.65 L 131.75 173.00 L 150.75 173.00 L 151.45 172.80 L 151.90 172.25 L 152.00 80.75 L 152.75 76.00 L 152.75 72.25 L 153.60 69.75 L 153.75 67.00 L 154.60 64.75 L 154.85 62.50 L 156.90 56.50 L 161.00 47.50 L 164.65 41.75 L 170.50 34.90 L 177.50 29.15 L 185.00 25.00 L 190.50 22.90 L 192.50 22.65 L 194.75 21.75 L 197.25 21.75 L 201.75 20.75 L 210.50 20.75 L 214.75 21.75 L 217.75 21.85 L 219.50 22.65 L 221.50 22.90 L 227.25 25.05 L 230.75 26.80 L 237.00 30.85 L 243.50 36.75 L 247.30 41.50 L 250.00 45.50 L 254.85 55.25 L 256.85 60.75 L 257.10 62.50 L 257.90 64.25 L 258.15 66.75 L 259.00 69.00 L 259.00 71.00 L 260.00 75.50 L 260.50 83.75 L 260.55 172.25 L 261.00 172.80 L 261.75 173.00 L 280.75 173.00 L 281.60 172.50 L 281.75 73.25 L 280.75 68.50 L 280.75 66.00 L 279.90 63.00 L 279.40 59.50 L 276.85 50.75 L 273.55 42.25 L 269.70 35.00 L 265.05 28.00 L 260.25 22.25 L 253.25 15.75 L 246.75 11.15 L 239.75 7.30 L 231.75 4.10 L 224.50 2.20 L 217.50 1.00 L 208.25 0.25 L 197.00 1.00 L 191.25 2.00 L 183.25 4.10 L 178.00 6.20 L 172.50 9.05 L 166.50 12.90 L 162.00 16.50 L 155.75 23.00 L 151.30 29.00 L 148.20 34.25 L 145.10 40.75 L 143.10 46.25 L 142.75 48.00 L 142.00 48.65 L 141.20 48.00 L 139.55 42.75 L 135.55 34.25 L 130.30 26.25 L 127.25 22.50 L 122.25 17.50 L 116.75 13.15 L 110.50 9.20 L 104.25 6.15 L 98.75 4.10 L 91.50 2.20 L 86.50 1.25 L 75.25 0.25 L 61.75 1.25 L 53.00 3.15 L 44.25 6.20 L 38.25 9.20 L 30.75 14.10 L 24.75 19.25 L 19.25 25.25 L 14.40 32.00 Z" fill="currentColor" fill-rule="evenodd" />
</svg>