<svg xmlns="http://www.w3.org/2000/svg" viewBox="0 0 1188 724" width="100%" height="100%">
  <path d="M 28.0 165.0 L 28.0 170.0 L 27.0 171.0 L 27.0 173.0 L 26.0 175.0 L 24.0 177.0 L 24.0 179.0 L 22.0 183.0 L 20.0 185.0 L 20.0 190.0 L 19.0 191.0 L 19.0 193.0 L 18.0 195.0 L 16.0 197.0 L 16.0 202.0 L 15.0 203.0 L 15.0 205.0 L 12.0 209.0 L 12.0 211.0 L 10.0 215.0 L 8.0 217.0 L 8.0 230.0 L 7.0 231.0 L 7.0 233.0 L 6.0 235.0 L 4.0 237.0 L 4.0 242.0 L 3.0 243.0 L 3.0 245.0 L 0.0 249.0 L 0.0 721.0 L 3.0 723.0 L 83.0 723.0 L 85.0 722.0 L 87.0 719.0 L 87.0 333.0 L 88.0 331.0 L 89.0 331.0 L 90.0 329.0 L 90.0 327.0 L 91.0 326.0 L 91.0 293.0 L 94.0 289.0 L 94.0 287.0 L 95.0 286.0 L 95.0 281.0 L 96.0 279.0 L 97.0 279.0 L 98.0 277.0 L 98.0 275.0 L 99.0 274.0 L 99.0 261.0 L 102.0 257.0 L 102.0 255.0 L 103.0 254.0 L 103.0 249.0 L 106.0 245.0 L 106.0 243.0 L 107.0 242.0 L 107.0 237.0 L 108.0 235.0 L 109.0 235.0 L 110.0 233.0 L 110.0 231.0 L 111.0 230.0 L 111.0 225.0 L 112.0 223.0 L 113.0 223.0 L 115.0 219.0 L 115.0 217.0 L 116.0 215.0 L 117.0 215.0 L 119.0 211.0 L 119.0 209.0 L 120.0 207.0 L 121.0 207.0 L 123.0 203.0 L 123.0 201.0 L 124.0 199.0 L 125.0 199.0 L 127.0 195.0 L 127.0 193.0 L 128.0 191.0 L 129.0 191.0 L 131.0 189.0 L 131.0 188.0 L 133.0 187.0 L 135.0 183.0 L 135.0 181.0 L 136.0 179.0 L 137.0 179.0 L 139.0 175.0 L 139.0 173.0 L 140.0 171.0 L 141.0 171.0 L 143.0 169.0 L 143.0 168.0 L 145.0 167.0 L 147.0 165.0 L 147.0 164.0 L 151.0 161.0 L 152.0 159.0 L 153.0 159.0 L 155.0 155.0 L 155.0 153.0 L 157.0 151.0 L 159.0 151.0 L 161.0 150.0 L 161.0 149.0 L 162.0 149.0 L 164.0 143.0 L 165.0 143.0 L 167.0 141.0 L 167.0 140.0 L 171.0 137.0 L 171.0 136.0 L 173.0 135.0 L 175.0 135.0 L 179.0 133.0 L 179.0 132.0 L 181.0 131.0 L 183.0 129.0 L 183.0 128.0 L 187.0 125.0 L 187.0 124.0 L 189.0 123.0 L 191.0 123.0 L 195.0 121.0 L 195.0 120.0 L 197.0 119.0 L 199.0 117.0 L 199.0 116.0 L 201.0 115.0 L 203.0 115.0 L 207.0 113.0 L 207.0 112.0 L 209.0 111.0 L 211.0 109.0 L 211.0 108.0 L 213.0 107.0 L 218.0 107.0 L 219.0 106.0 L 221.0 106.0 L 223.0 105.0 L 223.0 104.0 L 225.0 103.0 L 230.0 103.0 L 231.0 102.0 L 233.0 102.0 L 235.0 101.0 L 235.0 100.0 L 237.0 99.0 L 239.0 99.0 L 243.0 97.0 L 243.0 96.0 L 245.0 95.0 L 254.0 95.0 L 255.0 94.0 L 257.0 94.0 L 259.0 93.0 L 259.0 92.0 L 261.0 91.0 L 270.0 91.0 L 271.0 90.0 L 273.0 90.0 L 277.0 87.0 L 345.0 87.0 L 349.0 90.0 L 351.0 90.0 L 352.0 91.0 L 361.0 91.0 L 365.0 94.0 L 367.0 94.0 L 368.0 95.0 L 381.0 95.0 L 385.0 98.0 L 391.0 100.0 L 393.0 102.0 L 395.0 102.0 L 396.0 103.0 L 401.0 103.0 L 407.0 107.0 L 409.0 107.0 L 413.0 110.0 L 419.0 112.0 L 420.0 114.0 L 422.0 115.0 L 425.0 118.0 L 427.0 119.0 L 429.0 119.0 L 433.0 122.0 L 439.0 124.0 L 440.0 126.0 L 442.0 127.0 L 444.0 129.0 L 444.0 130.0 L 446.0 131.0 L 448.0 133.0 L 448.0 134.0 L 450.0 135.0 L 452.0 137.0 L 452.0 138.0 L 454.0 139.0 L 456.0 141.0 L 456.0 142.0 L 458.0 143.0 L 460.0 145.0 L 460.0 146.0 L 462.0 147.0 L 464.0 149.0 L 464.0 150.0 L 466.0 151.0 L 468.0 153.0 L 468.0 154.0 L 470.0 155.0 L 472.0 157.0 L 472.0 158.0 L 474.0 159.0 L 476.0 161.0 L 476.0 162.0 L 478.0 163.0 L 480.0 165.0 L 480.0 166.0 L 484.0 169.0 L 485.0 171.0 L 486.0 171.0 L 488.0 175.0 L 488.0 177.0 L 489.0 179.0 L 490.0 179.0 L 492.0 181.0 L 492.0 182.0 L 494.0 183.0 L 496.0 187.0 L 496.0 189.0 L 497.0 191.0 L 498.0 191.0 L 500.0 193.0 L 500.0 194.0 L 502.0 195.0 L 504.0 199.0 L 504.0 201.0 L 505.0 203.0 L 506.0 203.0 L 508.0 205.0 L 508.0 206.0 L 510.0 207.0 L 511.0 209.0 L 511.0 211.0 L 512.0 212.0 L 512.0 217.0 L 513.0 219.0 L 514.0 219.0 L 515.0 221.0 L 515.0 223.0 L 516.0 224.0 L 516.0 229.0 L 517.0 231.0 L 518.0 231.0 L 520.0 235.0 L 520.0 237.0 L 521.0 239.0 L 522.0 239.0 L 523.0 241.0 L 523.0 243.0 L 524.0 244.0 L 524.0 253.0 L 525.0 255.0 L 526.0 255.0 L 528.0 259.0 L 528.0 261.0 L 529.0 263.0 L 530.0 263.0 L 531.0 265.0 L 531.0 267.0 L 532.0 268.0 L 532.0 281.0 L 535.0 285.0 L 535.0 287.0 L 536.0 288.0 L 536.0 293.0 L 537.0 295.0 L 538.0 295.0 L 539.0 297.0 L 539.0 299.0 L 540.0 300.0 L 540.0 333.0 L 541.0 335.0 L 542.0 335.0 L 543.0 337.0 L 543.0 339.0 L 544.0 340.0 L 544.0 721.0 L 547.0 723.0 L 635.0 723.0 L 637.0 722.0 L 639.0 719.0 L 639.0 321.0 L 640.0 319.0 L 641.0 319.0 L 642.0 317.0 L 642.0 315.0 L 643.0 314.0 L 643.0 289.0 L 646.0 285.0 L 646.0 283.0 L 647.0 282.0 L 647.0 277.0 L 648.0 275.0 L 649.0 275.0 L 650.0 273.0 L 650.0 271.0 L 651.0 270.0 L 651.0 257.0 L 652.0 255.0 L 653.0 255.0 L 655.0 251.0 L 655.0 249.0 L 658.0 245.0 L 658.0 243.0 L 659.0 242.0 L 659.0 237.0 L 660.0 235.0 L 661.0 235.0 L 662.0 233.0 L 662.0 231.0 L 663.0 230.0 L 663.0 225.0 L 664.0 223.0 L 665.0 223.0 L 667.0 219.0 L 667.0 217.0 L 668.0 215.0 L 669.0 215.0 L 671.0 211.0 L 671.0 209.0 L 672.0 207.0 L 673.0 207.0 L 675.0 203.0 L 675.0 201.0 L 676.0 199.0 L 677.0 199.0 L 679.0 195.0 L 679.0 193.0 L 680.0 191.0 L 681.0 191.0 L 683.0 189.0 L 683.0 188.0 L 685.0 187.0 L 687.0 183.0 L 687.0 181.0 L 688.0 179.0 L 689.0 179.0 L 691.0 177.0 L 691.0 176.0 L 693.0 175.0 L 695.0 171.0 L 695.0 169.0 L 696.0 167.0 L 697.0 167.0 L 699.0 165.0 L 699.0 164.0 L 701.0 163.0 L 703.0 161.0 L 703.0 160.0 L 705.0 159.0 L 707.0 157.0 L 707.0 156.0 L 711.0 153.0 L 712.0 151.0 L 713.0 151.0 L 715.0 147.0 L 715.0 145.0 L 717.0 143.0 L 719.0 143.0 L 723.0 141.0 L 723.0 140.0 L 725.0 139.0 L 727.0 137.0 L 727.0 136.0 L 729.0 135.0 L 731.0 133.0 L 731.0 132.0 L 735.0 129.0 L 735.0 128.0 L 737.0 127.0 L 739.0 127.0 L 743.0 125.0 L 743.0 124.0 L 745.0 123.0 L 747.0 121.0 L 747.0 120.0 L 751.0 117.0 L 751.0 116.0 L 753.0 115.0 L 758.0 115.0 L 759.0 114.0 L 761.0 114.0 L 763.0 113.0 L 763.0 112.0 L 765.0 111.0 L 767.0 109.0 L 767.0 108.0 L 769.0 107.0 L 774.0 107.0 L 775.0 106.0 L 777.0 106.0 L 779.0 105.0 L 779.0 104.0 L 781.0 103.0 L 783.0 103.0 L 787.0 101.0 L 787.0 100.0 L 789.0 99.0 L 794.0 99.0 L 795.0 98.0 L 797.0 98.0 L 799.0 97.0 L 799.0 96.0 L 801.0 95.0 L 810.0 95.0 L 811.0 94.0 L 813.0 94.0 L 815.0 93.0 L 815.0 92.0 L 817.0 91.0 L 826.0 91.0 L 827.0 90.0 L 829.0 90.0 L 831.0 89.0 L 831.0 88.0 L 833.0 87.0 L 897.0 87.0 L 901.0 90.0 L 903.0 90.0 L 904.0 91.0 L 913.0 91.0 L 917.0 94.0 L 919.0 94.0 L 920.0 95.0 L 933.0 95.0 L 939.0 99.0 L 941.0 99.0 L 945.0 102.0 L 951.0 104.0 L 953.0 106.0 L 955.0 106.0 L 956.0 107.0 L 961.0 107.0 L 967.0 111.0 L 969.0 111.0 L 973.0 114.0 L 979.0 116.0 L 980.0 118.0 L 982.0 119.0 L 985.0 122.0 L 987.0 123.0 L 989.0 123.0 L 991.0 125.0 L 992.0 127.0 L 992.0 129.0 L 993.0 129.0 L 993.0 130.0 L 995.0 131.0 L 997.0 131.0 L 1003.0 135.0 L 1005.0 135.0 L 1007.0 137.0 L 1009.0 143.0 L 1010.0 143.0 L 1012.0 145.0 L 1012.0 146.0 L 1014.0 147.0 L 1016.0 149.0 L 1016.0 150.0 L 1018.0 151.0 L 1020.0 153.0 L 1020.0 154.0 L 1022.0 155.0 L 1024.0 157.0 L 1024.0 158.0 L 1026.0 159.0 L 1028.0 161.0 L 1028.0 162.0 L 1030.0 163.0 L 1032.0 165.0 L 1032.0 166.0 L 1036.0 169.0 L 1037.0 171.0 L 1038.0 171.0 L 1040.0 175.0 L 1040.0 177.0 L 1041.0 179.0 L 1042.0 179.0 L 1044.0 183.0 L 1044.0 185.0 L 1045.0 187.0 L 1046.0 187.0 L 1048.0 189.0 L 1048.0 190.0 L 1050.0 191.0 L 1052.0 195.0 L 1052.0 197.0 L 1053.0 199.0 L 1054.0 199.0 L 1056.0 203.0 L 1056.0 205.0 L 1057.0 207.0 L 1058.0 207.0 L 1060.0 209.0 L 1060.0 210.0 L 1062.0 211.0 L 1063.0 213.0 L 1063.0 215.0 L 1064.0 216.0 L 1064.0 221.0 L 1065.0 223.0 L 1066.0 223.0 L 1068.0 227.0 L 1068.0 229.0 L 1071.0 233.0 L 1071.0 235.0 L 1072.0 236.0 L 1072.0 241.0 L 1075.0 245.0 L 1075.0 247.0 L 1076.0 248.0 L 1076.0 253.0 L 1079.0 257.0 L 1079.0 259.0 L 1080.0 260.0 L 1080.0 265.0 L 1081.0 267.0 L 1082.0 267.0 L 1083.0 269.0 L 1083.0 271.0 L 1084.0 272.0 L 1084.0 285.0 L 1087.0 289.0 L 1087.0 291.0 L 1088.0 292.0 L 1088.0 301.0 L 1089.0 303.0 L 1090.0 303.0 L 1091.0 305.0 L 1091.0 307.0 L 1092.0 308.0 L 1092.0 361.0 L 1093.0 363.0 L 1094.0 363.0 L 1095.0 365.0 L 1095.0 367.0 L 1096.0 368.0 L 1096.0 721.0 L 1099.0 723.0 L 1183.0 723.0 L 1185.0 722.0 L 1187.0 719.0 L 1187.0 287.0 L 1185.0 283.0 L 1183.0 281.0 L 1183.0 260.0 L 1182.0 259.0 L 1182.0 257.0 L 1179.0 253.0 L 1179.0 244.0 L 1178.0 243.0 L 1178.0 241.0 L 1175.0 237.0 L 1175.0 228.0 L 1174.0 227.0 L 1174.0 225.0 L 1171.0 221.0 L 1171.0 219.0 L 1167.0 213.0 L 1167.0 204.0 L 1166.0 203.0 L 1166.0 201.0 L 1164.0 199.0 L 1163.0 197.0 L 1163.0 195.0 L 1159.0 189.0 L 1159.0 184.0 L 1158.0 183.0 L 1158.0 181.0 L 1155.0 177.0 L 1155.0 172.0 L 1154.0 171.0 L 1154.0 169.0 L 1151.0 166.0 L 1151.0 165.0 L 1148.0 163.0 L 1147.0 161.0 L 1147.0 156.0 L 1146.0 155.0 L 1146.0 153.0 L 1143.0 150.0 L 1143.0 149.0 L 1140.0 147.0 L 1139.0 145.0 L 1139.0 143.0 L 1138.0 141.0 L 1135.0 138.0 L 1135.0 137.0 L 1132.0 135.0 L 1131.0 133.0 L 1131.0 131.0 L 1128.0 127.0 L 1126.0 121.0 L 1123.0 118.0 L 1123.0 117.0 L 1120.0 115.0 L 1118.0 109.0 L 1115.0 106.0 L 1115.0 105.0 L 1113.0 104.0 L 1111.0 102.0 L 1111.0 101.0 L 1109.0 100.0 L 1107.0 98.0 L 1107.0 97.0 L 1104.0 95.0 L 1102.0 89.0 L 1101.0 89.0 L 1101.0 88.0 L 1099.0 88.0 L 1097.0 87.0 L 1095.0 85.0 L 1095.0 83.0 L 1094.0 81.0 L 1091.0 78.0 L 1091.0 77.0 L 1085.0 75.0 L 1083.0 73.0 L 1083.0 71.0 L 1082.0 69.0 L 1081.0 69.0 L 1081.0 68.0 L 1079.0 68.0 L 1075.0 66.0 L 1075.0 65.0 L 1073.0 64.0 L 1071.0 62.0 L 1071.0 61.0 L 1069.0 60.0 L 1067.0 58.0 L 1067.0 57.0 L 1063.0 54.0 L 1063.0 53.0 L 1061.0 52.0 L 1059.0 52.0 L 1055.0 50.0 L 1055.0 49.0 L 1053.0 48.0 L 1051.0 46.0 L 1051.0 45.0 L 1047.0 42.0 L 1047.0 41.0 L 1045.0 40.0 L 1043.0 40.0 L 1039.0 38.0 L 1039.0 37.0 L 1037.0 36.0 L 1035.0 36.0 L 1031.0 34.0 L 1031.0 33.0 L 1029.0 32.0 L 1027.0 32.0 L 1023.0 30.0 L 1023.0 29.0 L 1021.0 28.0 L 1019.0 26.0 L 1019.0 25.0 L 1017.0 24.0 L 1015.0 24.0 L 1011.0 22.0 L 1011.0 21.0 L 1009.0 20.0 L 1007.0 20.0 L 1003.0 18.0 L 1003.0 17.0 L 1001.0 16.0 L 996.0 16.0 L 995.0 15.0 L 993.0 15.0 L 991.0 14.0 L 991.0 13.0 L 989.0 12.0 L 980.0 12.0 L 979.0 11.0 L 977.0 11.0 L 975.0 10.0 L 975.0 9.0 L 973.0 8.0 L 971.0 8.0 L 967.0 6.0 L 967.0 5.0 L 965.0 4.0 L 952.0 4.0 L 951.0 3.0 L 949.0 3.0 L 945.0 0.0 L 797.0 0.0 L 793.0 3.0 L 791.0 3.0 L 790.0 4.0 L 777.0 4.0 L 775.0 6.0 L 771.0 8.0 L 769.0 8.0 L 767.0 10.0 L 765.0 11.0 L 763.0 11.0 L 762.0 12.0 L 753.0 12.0 L 751.0 14.0 L 747.0 16.0 L 745.0 16.0 L 743.0 18.0 L 739.0 20.0 L 737.0 20.0 L 735.0 22.0 L 731.0 24.0 L 729.0 24.0 L 725.0 28.0 L 724.0 28.0 L 723.0 30.0 L 719.0 32.0 L 717.0 32.0 L 715.0 34.0 L 711.0 36.0 L 709.0 36.0 L 705.0 40.0 L 704.0 40.0 L 703.0 42.0 L 699.0 44.0 L 697.0 44.0 L 693.0 48.0 L 692.0 48.0 L 692.0 49.0 L 689.0 52.0 L 688.0 52.0 L 687.0 54.0 L 683.0 56.0 L 681.0 56.0 L 677.0 60.0 L 676.0 60.0 L 676.0 61.0 L 673.0 64.0 L 672.0 64.0 L 672.0 65.0 L 668.0 69.0 L 668.0 71.0 L 667.0 73.0 L 665.0 75.0 L 663.0 76.0 L 661.0 76.0 L 657.0 80.0 L 656.0 80.0 L 656.0 81.0 L 653.0 84.0 L 652.0 84.0 L 652.0 85.0 L 648.0 89.0 L 648.0 91.0 L 646.0 95.0 L 644.0 96.0 L 644.0 97.0 L 641.0 100.0 L 640.0 100.0 L 640.0 101.0 L 636.0 105.0 L 636.0 107.0 L 634.0 111.0 L 632.0 112.0 L 632.0 113.0 L 628.0 117.0 L 628.0 119.0 L 626.0 123.0 L 624.0 125.0 L 624.0 127.0 L 622.0 131.0 L 620.0 132.0 L 620.0 133.0 L 616.0 137.0 L 616.0 139.0 L 614.0 143.0 L 612.0 145.0 L 612.0 147.0 L 610.0 151.0 L 608.0 153.0 L 608.0 158.0 L 607.0 159.0 L 607.0 161.0 L 606.0 163.0 L 604.0 165.0 L 604.0 170.0 L 603.0 171.0 L 603.0 173.0 L 600.0 177.0 L 600.0 179.0 L 598.0 183.0 L 596.0 185.0 L 596.0 190.0 L 595.0 191.0 L 595.0 193.0 L 594.0 194.0 L 592.0 194.0 L 591.0 193.0 L 591.0 188.0 L 590.0 187.0 L 590.0 185.0 L 587.0 181.0 L 587.0 176.0 L 586.0 175.0 L 586.0 173.0 L 584.0 171.0 L 583.0 169.0 L 583.0 167.0 L 579.0 161.0 L 579.0 156.0 L 578.0 155.0 L 578.0 153.0 L 575.0 150.0 L 575.0 149.0 L 572.0 147.0 L 571.0 145.0 L 571.0 143.0 L 567.0 137.0 L 567.0 135.0 L 563.0 129.0 L 563.0 127.0 L 560.0 123.0 L 558.0 117.0 L 555.0 114.0 L 555.0 113.0 L 553.0 112.0 L 551.0 110.0 L 551.0 109.0 L 549.0 108.0 L 547.0 106.0 L 547.0 105.0 L 544.0 103.0 L 543.0 101.0 L 543.0 99.0 L 542.0 97.0 L 539.0 94.0 L 539.0 93.0 L 537.0 92.0 L 535.0 90.0 L 535.0 89.0 L 533.0 88.0 L 531.0 86.0 L 531.0 85.0 L 529.0 84.0 L 527.0 82.0 L 527.0 81.0 L 525.0 80.0 L 523.0 78.0 L 523.0 77.0 L 521.0 76.0 L 519.0 74.0 L 519.0 73.0 L 517.0 72.0 L 515.0 70.0 L 515.0 69.0 L 513.0 68.0 L 511.0 66.0 L 511.0 65.0 L 509.0 64.0 L 507.0 62.0 L 507.0 61.0 L 505.0 60.0 L 503.0 58.0 L 503.0 57.0 L 499.0 54.0 L 499.0 53.0 L 497.0 52.0 L 495.0 52.0 L 491.0 50.0 L 491.0 49.0 L 489.0 48.0 L 487.0 46.0 L 487.0 45.0 L 485.0 44.0 L 483.0 44.0 L 479.0 42.0 L 479.0 41.0 L 477.0 40.0 L 475.0 38.0 L 475.0 37.0 L 473.0 36.0 L 471.0 36.0 L 467.0 34.0 L 467.0 33.0 L 465.0 32.0 L 463.0 32.0 L 459.0 30.0 L 459.0 29.0 L 457.0 28.0 L 455.0 26.0 L 455.0 25.0 L 453.0 24.0 L 448.0 24.0 L 447.0 23.0 L 445.0 23.0 L 443.0 22.0 L 443.0 21.0 L 441.0 20.0 L 439.0 18.0 L 439.0 17.0 L 437.0 16.0 L 432.0 16.0 L 431.0 15.0 L 429.0 15.0 L 427.0 14.0 L 427.0 13.0 L 425.0 12.0 L 416.0 12.0 L 415.0 11.0 L 413.0 11.0 L 411.0 10.0 L 411.0 9.0 L 409.0 8.0 L 407.0 8.0 L 403.0 6.0 L 403.0 5.0 L 401.0 4.0 L 388.0 4.0 L 387.0 3.0 L 385.0 3.0 L 381.0 0.0 L 229.0 0.0 L 225.0 3.0 L 223.0 3.0 L 222.0 4.0 L 209.0 4.0 L 207.0 6.0 L 203.0 8.0 L 201.0 8.0 L 197.0 11.0 L 195.0 11.0 L 194.0 12.0 L 189.0 12.0 L 187.0 14.0 L 185.0 15.0 L 183.0 15.0 L 182.0 16.0 L 177.0 16.0 L 173.0 20.0 L 172.0 20.0 L 171.0 22.0 L 169.0 23.0 L 167.0 23.0 L 166.0 24.0 L 161.0 24.0 L 157.0 28.0 L 156.0 28.0 L 155.0 30.0 L 153.0 31.0 L 151.0 31.0 L 150.0 32.0 L 145.0 32.0 L 141.0 36.0 L 140.0 36.0 L 139.0 38.0 L 135.0 40.0 L 133.0 40.0 L 129.0 44.0 L 128.0 44.0 L 127.0 46.0 L 123.0 48.0 L 121.0 48.0 L 117.0 52.0 L 116.0 52.0 L 116.0 53.0 L 113.0 56.0 L 112.0 56.0 L 112.0 57.0 L 109.0 60.0 L 108.0 60.0 L 108.0 61.0 L 105.0 64.0 L 104.0 64.0 L 104.0 65.0 L 101.0 68.0 L 100.0 68.0 L 100.0 69.0 L 97.0 72.0 L 96.0 72.0 L 96.0 73.0 L 93.0 76.0 L 92.0 76.0 L 91.0 78.0 L 87.0 80.0 L 85.0 80.0 L 85.0 81.0 L 84.0 81.0 L 84.0 83.0 L 82.0 87.0 L 80.0 88.0 L 80.0 89.0 L 77.0 92.0 L 76.0 92.0 L 76.0 93.0 L 72.0 97.0 L 72.0 99.0 L 71.0 101.0 L 69.0 103.0 L 67.0 104.0 L 65.0 104.0 L 65.0 105.0 L 64.0 105.0 L 64.0 107.0 L 62.0 111.0 L 60.0 112.0 L 60.0 113.0 L 56.0 117.0 L 56.0 119.0 L 54.0 123.0 L 52.0 124.0 L 52.0 125.0 L 48.0 129.0 L 48.0 131.0 L 46.0 135.0 L 44.0 137.0 L 44.0 139.0 L 42.0 143.0 L 40.0 144.0 L 40.0 145.0 L 36.0 149.0 L 36.0 154.0 L 35.0 155.0 L 35.0 157.0 L 34.0 159.0 L 32.0 160.0 L 32.0 161.0 Z" fill="currentColor" fill-rule="evenodd" />
</svg>