<svg xmlns="http://www.w3.org/2000/svg" viewBox="0 0 283 174" width="100%" height="100%">
  <path d="M 8.00 41.00 L 8.00 43.00 L 7.00 44.00 L 7.00 46.00 L 6.00 47.00 L 6.00 49.00 L 5.00 50.00 L 5.00 52.00 L 4.00 53.00 L 4.00 56.00 L 3.00 57.00 L 3.00 60.00 L 2.00 61.00 L 2.00 63.00 L 1.00 64.00 L 1.00 71.00 L 0.00 72.00 L 0.00 173.00 L 22.00 173.00 L 22.00 74.00 L 23.00 73.00 L 23.00 68.00 L 24.00 67.00 L 24.00 63.00 L 25.00 62.00 L 25.00 61.00 L 26.00 60.00 L 26.00 58.00 L 27.00 57.00 L 27.00 55.00 L 28.00 54.00 L 28.00 52.00 L 29.00 51.00 L 29.00 50.00 L 30.00 49.00 L 30.00 48.00 L 32.00 46.00 L 32.00 44.00 L 33.00 43.00 L 34.00 43.00 L 34.00 42.00 L 37.00 39.00 L 37.00 38.00 L 44.00 31.00 L 45.00 31.00 L 49.00 27.00 L 51.00 27.00 L 53.00 25.00 L 55.00 25.00 L 56.00 24.00 L 58.00 24.00 L 59.00 23.00 L 61.00 23.00 L 62.00 22.00 L 66.00 22.00 L 67.00 21.00 L 71.00 21.00 L 72.00 20.00 L 79.00 20.00 L 80.00 21.00 L 83.00 21.00 L 84.00 22.00 L 88.00 22.00 L 89.00 23.00 L 92.00 23.00 L 93.00 24.00 L 95.00 24.00 L 96.00 25.00 L 97.00 25.00 L 98.00 26.00 L 99.00 26.00 L 100.00 27.00 L 101.00 27.00 L 102.00 28.00 L 103.00 28.00 L 106.00 31.00 L 107.00 31.00 L 116.00 40.00 L 116.00 41.00 L 119.00 44.00 L 119.00 45.00 L 120.00 46.00 L 120.00 47.00 L 121.00 48.00 L 121.00 49.00 L 123.00 51.00 L 123.00 52.00 L 124.00 53.00 L 124.00 55.00 L 125.00 56.00 L 125.00 58.00 L 126.00 59.00 L 126.00 61.00 L 127.00 62.00 L 127.00 65.00 L 128.00 66.00 L 128.00 70.00 L 129.00 71.00 L 129.00 78.00 L 130.00 79.00 L 130.00 173.00 L 152.00 173.00 L 152.00 73.00 L 153.00 72.00 L 153.00 69.00 L 154.00 68.00 L 154.00 65.00 L 155.00 64.00 L 155.00 61.00 L 156.00 60.00 L 156.00 58.00 L 157.00 57.00 L 157.00 55.00 L 158.00 54.00 L 158.00 52.00 L 159.00 51.00 L 159.00 50.00 L 160.00 49.00 L 160.00 48.00 L 162.00 46.00 L 162.00 45.00 L 164.00 43.00 L 164.00 42.00 L 167.00 39.00 L 167.00 38.00 L 173.00 32.00 L 174.00 32.00 L 177.00 29.00 L 178.00 29.00 L 180.00 27.00 L 181.00 27.00 L 182.00 26.00 L 183.00 26.00 L 184.00 25.00 L 185.00 25.00 L 186.00 24.00 L 188.00 24.00 L 189.00 23.00 L 191.00 23.00 L 192.00 22.00 L 196.00 22.00 L 197.00 21.00 L 201.00 21.00 L 202.00 20.00 L 209.00 20.00 L 210.00 21.00 L 214.00 21.00 L 215.00 22.00 L 219.00 22.00 L 220.00 23.00 L 222.00 23.00 L 223.00 24.00 L 225.00 24.00 L 226.00 25.00 L 228.00 25.00 L 230.00 27.00 L 231.00 27.00 L 232.00 28.00 L 233.00 28.00 L 236.00 31.00 L 237.00 31.00 L 241.00 35.00 L 242.00 35.00 L 243.00 36.00 L 243.00 37.00 L 246.00 40.00 L 246.00 41.00 L 248.00 43.00 L 248.00 44.00 L 250.00 46.00 L 250.00 47.00 L 252.00 49.00 L 252.00 50.00 L 253.00 51.00 L 253.00 53.00 L 254.00 54.00 L 254.00 55.00 L 255.00 56.00 L 255.00 58.00 L 256.00 59.00 L 256.00 62.00 L 257.00 63.00 L 257.00 66.00 L 258.00 67.00 L 258.00 68.00 L 259.00 69.00 L 259.00 75.00 L 260.00 76.00 L 260.00 173.00 L 282.00 173.00 L 282.00 74.00 L 281.00 73.00 L 281.00 69.00 L 280.00 68.00 L 280.00 63.00 L 279.00 62.00 L 279.00 58.00 L 278.00 57.00 L 278.00 53.00 L 277.00 52.00 L 277.00 50.00 L 276.00 49.00 L 276.00 47.00 L 275.00 46.00 L 275.00 44.00 L 274.00 43.00 L 274.00 42.00 L 272.00 40.00 L 272.00 39.00 L 271.00 38.00 L 271.00 37.00 L 270.00 36.00 L 270.00 35.00 L 269.00 34.00 L 269.00 33.00 L 267.00 31.00 L 267.00 30.00 L 266.00 29.00 L 266.00 28.00 L 265.00 28.00 L 264.00 27.00 L 264.00 26.00 L 260.00 22.00 L 260.00 21.00 L 258.00 19.00 L 257.00 19.00 L 251.00 13.00 L 250.00 13.00 L 248.00 11.00 L 247.00 11.00 L 246.00 10.00 L 245.00 10.00 L 243.00 8.00 L 241.00 8.00 L 240.00 7.00 L 239.00 7.00 L 237.00 5.00 L 235.00 5.00 L 234.00 4.00 L 232.00 4.00 L 231.00 3.00 L 228.00 3.00 L 227.00 2.00 L 223.00 2.00 L 222.00 1.00 L 216.00 1.00 L 215.00 0.00 L 198.00 0.00 L 197.00 1.00 L 191.00 1.00 L 190.00 2.00 L 187.00 2.00 L 186.00 3.00 L 183.00 3.00 L 182.00 4.00 L 181.00 4.00 L 180.00 5.00 L 178.00 5.00 L 176.00 7.00 L 174.00 7.00 L 172.00 9.00 L 171.00 9.00 L 170.00 10.00 L 169.00 10.00 L 168.00 11.00 L 167.00 11.00 L 162.00 16.00 L 161.00 16.00 L 156.00 21.00 L 156.00 22.00 L 151.00 27.00 L 151.00 28.00 L 150.00 29.00 L 150.00 30.00 L 149.00 31.00 L 149.00 32.00 L 148.00 33.00 L 148.00 34.00 L 147.00 35.00 L 147.00 36.00 L 145.00 38.00 L 145.00 40.00 L 144.00 41.00 L 144.00 42.00 L 143.00 43.00 L 143.00 46.00 L 142.00 47.00 L 140.00 45.00 L 140.00 43.00 L 139.00 42.00 L 139.00 40.00 L 138.00 39.00 L 138.00 38.00 L 136.00 36.00 L 136.00 35.00 L 135.00 34.00 L 135.00 33.00 L 134.00 32.00 L 134.00 31.00 L 133.00 30.00 L 133.00 29.00 L 131.00 27.00 L 131.00 26.00 L 125.00 20.00 L 125.00 19.00 L 124.00 19.00 L 120.00 15.00 L 119.00 15.00 L 118.00 14.00 L 118.00 13.00 L 117.00 13.00 L 115.00 11.00 L 114.00 11.00 L 113.00 10.00 L 112.00 10.00 L 111.00 9.00 L 110.00 9.00 L 109.00 8.00 L 108.00 8.00 L 107.00 7.00 L 106.00 7.00 L 104.00 5.00 L 102.00 5.00 L 101.00 4.00 L 99.00 4.00 L 98.00 3.00 L 95.00 3.00 L 94.00 2.00 L 91.00 2.00 L 90.00 1.00 L 83.00 1.00 L 82.00 0.00 L 65.00 0.00 L 64.00 1.00 L 58.00 1.00 L 57.00 2.00 L 53.00 2.00 L 52.00 3.00 L 50.00 3.00 L 49.00 4.00 L 47.00 4.00 L 46.00 5.00 L 44.00 5.00 L 42.00 7.00 L 40.00 7.00 L 38.00 9.00 L 37.00 9.00 L 36.00 10.00 L 35.00 10.00 L 34.00 11.00 L 33.00 11.00 L 31.00 13.00 L 30.00 13.00 L 30.00 14.00 L 29.00 15.00 L 28.00 15.00 L 24.00 19.00 L 23.00 19.00 L 23.00 20.00 L 19.00 24.00 L 19.00 25.00 L 18.00 26.00 L 17.00 26.00 L 17.00 27.00 L 15.00 29.00 L 15.00 30.00 L 14.00 31.00 L 14.00 32.00 L 12.00 34.00 L 12.00 35.00 L 11.00 36.00 L 11.00 37.00 L 9.00 39.00 L 9.00 40.00 Z" fill="currentColor" fill-rule="evenodd" />
</svg>