<svg xmlns="http://www.w3.org/2000/svg" viewBox="0 0 283 174" width="100%" height="100%">
  <path d="M 9.00 40.00 L 5.00 51.00 L 2.22 61.00 L 0.89 68.00 L 0.00 76.00 L 0.00 169.00 L 0.67 171.33 L 2.33 172.67 L 4.00 173.00 L 18.89 172.89 L 20.89 171.89 L 21.89 169.89 L 22.00 78.00 L 22.67 72.00 L 24.00 65.00 L 28.89 51.00 L 30.89 47.00 L 35.11 40.78 L 40.11 35.00 L 46.00 29.78 L 52.00 26.00 L 58.00 23.67 L 66.00 21.56 L 75.00 20.11 L 79.00 20.44 L 91.00 23.11 L 99.00 26.22 L 105.00 29.89 L 111.00 35.00 L 117.11 42.00 L 120.33 47.00 L 124.33 55.00 L 126.89 63.00 L 128.44 70.00 L 130.00 83.00 L 130.00 169.00 L 130.33 170.67 L 131.67 172.33 L 134.00 173.00 L 148.00 173.00 L 149.67 172.67 L 150.89 171.89 L 151.89 169.89 L 152.00 77.00 L 152.44 73.00 L 155.11 62.00 L 158.89 51.00 L 161.67 46.00 L 167.44 38.00 L 171.00 34.22 L 176.00 30.11 L 183.00 25.78 L 188.00 23.67 L 196.00 21.56 L 205.00 20.11 L 210.00 20.56 L 221.00 23.00 L 225.00 24.33 L 231.00 27.22 L 239.00 33.00 L 242.56 36.33 L 247.00 42.00 L 252.00 50.00 L 254.22 55.00 L 257.89 67.00 L 259.22 73.00 L 260.00 80.00 L 260.11 169.89 L 260.67 171.33 L 261.67 172.33 L 264.00 173.00 L 278.89 172.89 L 280.33 172.33 L 281.67 170.67 L 282.00 169.00 L 282.00 78.00 L 281.44 73.00 L 277.78 54.00 L 275.33 46.00 L 274.00 43.00 L 268.00 32.00 L 264.22 26.67 L 260.44 22.11 L 256.00 17.67 L 252.00 14.33 L 247.00 10.78 L 240.00 7.00 L 234.00 4.33 L 230.00 3.11 L 223.00 1.56 L 211.00 0.00 L 202.00 0.00 L 195.00 0.78 L 187.00 2.33 L 181.00 4.22 L 169.00 10.33 L 163.00 14.67 L 157.33 20.00 L 153.89 24.00 L 150.33 29.00 L 145.11 39.00 L 143.56 43.00 L 142.56 44.33 L 141.67 44.78 L 140.78 44.33 L 139.78 43.00 L 137.00 37.00 L 132.56 29.00 L 128.00 23.00 L 123.67 18.56 L 118.44 14.00 L 111.00 9.22 L 101.00 4.33 L 90.00 1.44 L 78.00 0.00 L 69.00 0.00 L 62.00 0.78 L 54.00 2.22 L 47.00 4.33 L 37.00 9.11 L 31.33 12.67 L 24.33 18.56 L 18.00 25.56 L 14.78 30.00 Z" fill="currentColor" fill-rule="evenodd" />
</svg>