<svg xmlns="http://www.w3.org/2000/svg" viewBox="0 0 380 716" width="100%" height="100%">
  <path d="M 375.0 13.0 L 373.0 12.0 L 371.0 12.0 L 367.0 10.0 L 367.0 9.0 L 365.0 8.0 L 360.0 8.0 L 359.0 7.0 L 357.0 7.0 L 353.0 4.0 L 340.0 4.0 L 339.0 3.0 L 337.0 3.0 L 333.0 0.0 L 189.0 0.0 L 185.0 3.0 L 183.0 3.0 L 182.0 4.0 L 169.0 4.0 L 165.0 7.0 L 163.0 7.0 L 162.0 8.0 L 157.0 8.0 L 155.0 10.0 L 151.0 12.0 L 149.0 12.0 L 147.0 14.0 L 143.0 16.0 L 141.0 16.0 L 139.0 18.0 L 135.0 20.0 L 133.0 20.0 L 131.0 22.0 L 127.0 24.0 L 125.0 24.0 L 121.0 28.0 L 120.0 28.0 L 119.0 30.0 L 115.0 32.0 L 113.0 32.0 L 111.0 34.0 L 107.0 36.0 L 105.0 36.0 L 101.0 40.0 L 100.0 40.0 L 100.0 41.0 L 97.0 44.0 L 96.0 44.0 L 95.0 46.0 L 91.0 48.0 L 89.0 48.0 L 85.0 52.0 L 84.0 52.0 L 84.0 53.0 L 81.0 56.0 L 80.0 56.0 L 80.0 57.0 L 76.0 61.0 L 76.0 63.0 L 75.0 65.0 L 73.0 67.0 L 71.0 68.0 L 69.0 68.0 L 69.0 69.0 L 68.0 69.0 L 68.0 71.0 L 66.0 75.0 L 64.0 76.0 L 64.0 77.0 L 61.0 80.0 L 60.0 80.0 L 60.0 81.0 L 57.0 84.0 L 56.0 84.0 L 56.0 85.0 L 52.0 89.0 L 52.0 91.0 L 50.0 95.0 L 48.0 96.0 L 48.0 97.0 L 44.0 101.0 L 44.0 103.0 L 42.0 107.0 L 40.0 109.0 L 40.0 111.0 L 38.0 115.0 L 36.0 116.0 L 36.0 117.0 L 32.0 121.0 L 32.0 126.0 L 31.0 127.0 L 31.0 129.0 L 30.0 131.0 L 28.0 132.0 L 28.0 133.0 L 24.0 137.0 L 24.0 142.0 L 23.0 143.0 L 23.0 145.0 L 20.0 149.0 L 20.0 151.0 L 18.0 155.0 L 16.0 157.0 L 16.0 162.0 L 15.0 163.0 L 15.0 165.0 L 14.0 167.0 L 12.0 169.0 L 12.0 182.0 L 11.0 183.0 L 11.0 185.0 L 10.0 187.0 L 8.0 189.0 L 8.0 194.0 L 7.0 195.0 L 7.0 197.0 L 4.0 201.0 L 4.0 226.0 L 3.0 227.0 L 3.0 229.0 L 0.0 233.0 L 0.0 713.0 L 3.0 715.0 L 91.0 715.0 L 93.0 714.0 L 95.0 711.0 L 95.0 245.0 L 96.0 243.0 L 97.0 243.0 L 98.0 241.0 L 98.0 239.0 L 99.0 238.0 L 99.0 229.0 L 100.0 227.0 L 101.0 227.0 L 102.0 225.0 L 102.0 223.0 L 103.0 222.0 L 103.0 213.0 L 104.0 211.0 L 105.0 211.0 L 106.0 209.0 L 106.0 207.0 L 107.0 206.0 L 107.0 197.0 L 108.0 195.0 L 109.0 195.0 L 111.0 191.0 L 111.0 189.0 L 112.0 187.0 L 113.0 187.0 L 115.0 183.0 L 115.0 181.0 L 116.0 179.0 L 117.0 179.0 L 119.0 175.0 L 119.0 173.0 L 120.0 171.0 L 121.0 171.0 L 123.0 167.0 L 123.0 165.0 L 124.0 163.0 L 125.0 163.0 L 127.0 161.0 L 127.0 160.0 L 129.0 159.0 L 131.0 155.0 L 131.0 153.0 L 132.0 151.0 L 133.0 151.0 L 135.0 149.0 L 135.0 148.0 L 137.0 147.0 L 140.0 143.0 L 141.0 143.0 L 143.0 139.0 L 143.0 137.0 L 145.0 135.0 L 147.0 135.0 L 149.0 134.0 L 149.0 133.0 L 150.0 133.0 L 151.0 131.0 L 151.0 129.0 L 153.0 127.0 L 155.0 127.0 L 159.0 125.0 L 159.0 124.0 L 161.0 123.0 L 163.0 121.0 L 163.0 120.0 L 167.0 117.0 L 167.0 116.0 L 169.0 115.0 L 171.0 115.0 L 175.0 113.0 L 175.0 112.0 L 177.0 111.0 L 179.0 109.0 L 179.0 108.0 L 181.0 107.0 L 186.0 107.0 L 187.0 106.0 L 189.0 106.0 L 191.0 105.0 L 191.0 104.0 L 193.0 103.0 L 195.0 101.0 L 195.0 100.0 L 197.0 99.0 L 202.0 99.0 L 203.0 98.0 L 205.0 98.0 L 209.0 95.0 L 222.0 95.0 L 223.0 94.0 L 225.0 94.0 L 227.0 93.0 L 227.0 92.0 L 229.0 91.0 L 238.0 91.0 L 239.0 90.0 L 241.0 90.0 L 245.0 87.0 L 293.0 87.0 L 297.0 90.0 L 299.0 90.0 L 300.0 91.0 L 313.0 91.0 L 317.0 94.0 L 319.0 94.0 L 320.0 95.0 L 329.0 95.0 L 333.0 98.0 L 335.0 98.0 L 336.0 99.0 L 345.0 99.0 L 349.0 102.0 L 355.0 104.0 L 357.0 106.0 L 359.0 106.0 L 360.0 107.0 L 365.0 107.0 L 367.0 108.0 L 368.0 110.0 L 370.0 111.0 L 373.0 114.0 L 377.0 114.0 L 379.0 111.0 L 379.0 19.0 L 377.0 15.0 L 375.0 14.0 Z" fill="currentColor" fill-rule="evenodd" />
</svg>