<svg xmlns="http://www.w3.org/2000/svg" viewBox="0 0 92 172" width="100%" height="100%">
  <path d="M 90.00 5.00 L 88.00 5.00 L 86.00 3.00 L 84.00 3.00 L 83.00 2.00 L 79.00 2.00 L 78.00 1.00 L 74.00 1.00 L 73.00 0.00 L 51.00 0.00 L 50.00 1.00 L 45.00 1.00 L 44.00 2.00 L 41.00 2.00 L 40.00 3.00 L 38.00 3.00 L 36.00 5.00 L 34.00 5.00 L 33.00 6.00 L 32.00 6.00 L 31.00 7.00 L 30.00 7.00 L 29.00 8.00 L 28.00 8.00 L 26.00 10.00 L 25.00 10.00 L 20.00 15.00 L 19.00 15.00 L 15.00 19.00 L 15.00 20.00 L 13.00 22.00 L 13.00 23.00 L 11.00 25.00 L 11.00 26.00 L 9.00 28.00 L 9.00 29.00 L 8.00 30.00 L 8.00 31.00 L 7.00 32.00 L 7.00 33.00 L 6.00 34.00 L 6.00 36.00 L 5.00 37.00 L 5.00 38.00 L 4.00 39.00 L 4.00 42.00 L 3.00 43.00 L 3.00 46.00 L 2.00 47.00 L 2.00 49.00 L 1.00 50.00 L 1.00 56.00 L 0.00 57.00 L 0.00 171.00 L 22.00 171.00 L 22.00 58.00 L 23.00 57.00 L 23.00 53.00 L 24.00 52.00 L 24.00 49.00 L 26.00 47.00 L 26.00 45.00 L 27.00 44.00 L 27.00 43.00 L 28.00 42.00 L 28.00 41.00 L 29.00 40.00 L 29.00 39.00 L 31.00 37.00 L 31.00 36.00 L 39.00 28.00 L 40.00 28.00 L 42.00 26.00 L 43.00 26.00 L 44.00 25.00 L 45.00 25.00 L 46.00 24.00 L 47.00 24.00 L 48.00 23.00 L 51.00 23.00 L 52.00 22.00 L 55.00 22.00 L 56.00 21.00 L 71.00 21.00 L 72.00 22.00 L 77.00 22.00 L 78.00 23.00 L 80.00 23.00 L 81.00 24.00 L 83.00 24.00 L 84.00 25.00 L 85.00 25.00 L 86.00 26.00 L 88.00 26.00 L 90.00 28.00 L 91.00 28.00 L 91.00 6.00 Z" fill="currentColor" fill-rule="evenodd" />
</svg>