<svg xmlns="http://www.w3.org/2000/svg" viewBox="0 0 92 172" width="100%" height="100%">
  <path d="M 87.00 4.00 L 80.00 1.78 L 69.00 0.00 L 55.00 0.00 L 49.00 0.67 L 41.00 2.44 L 34.00 5.33 L 28.00 8.44 L 21.00 13.67 L 16.33 18.11 L 14.00 21.00 L 7.78 31.00 L 5.56 36.00 L 2.22 47.00 L 0.78 54.00 L 0.00 61.00 L 0.00 167.00 L 0.33 168.67 L 1.67 170.33 L 4.00 171.00 L 18.00 171.00 L 19.67 170.67 L 20.89 169.89 L 21.89 167.89 L 22.00 62.00 L 22.56 57.00 L 23.67 52.00 L 25.44 47.00 L 27.78 42.00 L 32.33 35.00 L 38.00 29.33 L 45.00 24.78 L 52.00 22.33 L 60.00 21.00 L 67.00 21.00 L 73.00 21.67 L 79.00 23.00 L 87.89 26.44 L 89.89 26.33 L 90.67 25.56 L 91.00 24.00 L 90.89 9.00 L 89.33 5.78 Z" fill="currentColor" fill-rule="evenodd" />
</svg>