<svg xmlns="http://www.w3.org/2000/svg" viewBox="0 0 92 172" width="100%" height="100%">
  <path d="M 89.00 5.30 L 86.00 4.05 L 81.25 2.85 L 79.50 2.10 L 73.75 1.00 L 62.50 0.00 L 50.00 1.00 L 44.75 2.10 L 43.00 2.85 L 41.25 3.05 L 35.50 5.30 L 30.50 7.80 L 25.25 11.10 L 22.00 13.75 L 17.05 18.50 L 12.90 23.75 L 9.20 29.75 L 6.20 36.00 L 4.15 41.75 L 3.90 43.25 L 3.15 45.00 L 2.90 47.50 L 2.10 49.25 L 2.00 52.50 L 1.00 56.25 L 1.00 62.50 L 0.75 63.75 L 0.75 169.75 L 1.30 170.80 L 20.75 171.00 L 21.50 170.80 L 21.95 170.25 L 22.00 66.25 L 22.75 57.50 L 23.90 52.00 L 24.60 50.50 L 24.85 48.75 L 25.65 47.25 L 25.85 46.00 L 27.95 41.50 L 30.10 38.00 L 33.25 33.75 L 38.25 29.10 L 41.00 27.05 L 44.75 25.05 L 50.00 22.90 L 52.75 22.10 L 61.00 20.75 L 67.50 20.75 L 72.25 21.75 L 75.25 22.00 L 78.75 22.90 L 84.50 24.85 L 90.00 27.60 L 90.70 27.60 L 91.10 27.00 L 91.00 7.00 L 90.70 6.30 Z" fill="currentColor" fill-rule="evenodd" />
</svg>