<svg xmlns="http://www.w3.org/2000/svg" viewBox="0 0 121 74" width="100%" height="100%">
  <path d="M 118.00 13.00 L 117.00 12.00 L 117.00 11.00 L 116.00 10.00 L 116.00 9.00 L 110.00 3.00 L 109.00 3.00 L 108.00 2.00 L 107.00 2.00 L 106.00 1.00 L 103.00 1.00 L 102.00 0.00 L 89.00 0.00 L 88.00 1.00 L 84.00 1.00 L 83.00 2.00 L 80.00 2.00 L 79.00 3.00 L 76.00 3.00 L 75.00 4.00 L 73.00 4.00 L 72.00 5.00 L 71.00 5.00 L 70.00 6.00 L 67.00 6.00 L 66.00 7.00 L 62.00 7.00 L 61.00 8.00 L 57.00 8.00 L 56.00 9.00 L 51.00 9.00 L 50.00 10.00 L 45.00 10.00 L 44.00 11.00 L 37.00 11.00 L 36.00 12.00 L 30.00 12.00 L 29.00 13.00 L 26.00 13.00 L 25.00 14.00 L 20.00 14.00 L 19.00 15.00 L 16.00 15.00 L 15.00 16.00 L 13.00 16.00 L 12.00 17.00 L 10.00 17.00 L 9.00 18.00 L 8.00 18.00 L 6.00 20.00 L 5.00 20.00 L 3.00 22.00 L 3.00 23.00 L 1.00 25.00 L 1.00 27.00 L 0.00 28.00 L 0.00 38.00 L 1.00 39.00 L 1.00 43.00 L 2.00 44.00 L 2.00 46.00 L 3.00 47.00 L 3.00 49.00 L 4.00 50.00 L 4.00 52.00 L 5.00 53.00 L 5.00 54.00 L 6.00 55.00 L 6.00 56.00 L 7.00 57.00 L 7.00 58.00 L 9.00 60.00 L 9.00 61.00 L 10.00 62.00 L 10.00 63.00 L 13.00 66.00 L 14.00 66.00 L 18.00 70.00 L 19.00 70.00 L 20.00 71.00 L 22.00 71.00 L 23.00 72.00 L 27.00 72.00 L 28.00 73.00 L 39.00 73.00 L 40.00 72.00 L 47.00 72.00 L 48.00 71.00 L 52.00 71.00 L 53.00 70.00 L 57.00 70.00 L 58.00 69.00 L 61.00 69.00 L 62.00 68.00 L 63.00 68.00 L 64.00 67.00 L 67.00 67.00 L 68.00 66.00 L 71.00 66.00 L 72.00 65.00 L 75.00 65.00 L 76.00 64.00 L 79.00 64.00 L 80.00 63.00 L 82.00 63.00 L 83.00 62.00 L 85.00 62.00 L 86.00 61.00 L 89.00 61.00 L 91.00 59.00 L 93.00 59.00 L 94.00 58.00 L 96.00 58.00 L 97.00 57.00 L 98.00 57.00 L 99.00 56.00 L 100.00 56.00 L 101.00 55.00 L 103.00 55.00 L 104.00 54.00 L 105.00 54.00 L 106.00 53.00 L 107.00 53.00 L 107.00 52.00 L 108.00 51.00 L 109.00 51.00 L 110.00 50.00 L 111.00 50.00 L 116.00 45.00 L 116.00 44.00 L 118.00 42.00 L 118.00 41.00 L 119.00 40.00 L 119.00 37.00 L 120.00 36.00 L 120.00 22.00 L 119.00 21.00 L 119.00 16.00 L 118.00 15.00 Z" fill="currentColor" fill-rule="evenodd" />
</svg>