<svg xmlns="http://www.w3.org/2000/svg" viewBox="0 0 224 224" width="100%" height="100%">
  <path d="M 101.0 0.0 L 97.0 3.0 L 95.0 3.0 L 94.0 4.0 L 81.0 4.0 L 77.0 7.0 L 75.0 7.0 L 74.0 8.0 L 69.0 8.0 L 67.0 10.0 L 63.0 12.0 L 61.0 12.0 L 57.0 16.0 L 56.0 16.0 L 55.0 18.0 L 51.0 20.0 L 49.0 20.0 L 45.0 24.0 L 44.0 24.0 L 43.0 26.0 L 39.0 28.0 L 37.0 28.0 L 33.0 32.0 L 32.0 32.0 L 32.0 33.0 L 28.0 37.0 L 28.0 39.0 L 26.0 43.0 L 24.0 44.0 L 24.0 45.0 L 21.0 48.0 L 20.0 48.0 L 20.0 49.0 L 16.0 53.0 L 16.0 55.0 L 14.0 59.0 L 12.0 61.0 L 12.0 63.0 L 10.0 67.0 L 8.0 69.0 L 8.0 74.0 L 7.0 75.0 L 7.0 77.0 L 4.0 81.0 L 4.0 90.0 L 3.0 91.0 L 3.0 93.0 L 0.0 97.0 L 0.0 129.0 L 3.0 133.0 L 3.0 135.0 L 4.0 136.0 L 4.0 141.0 L 5.0 143.0 L 6.0 143.0 L 7.0 145.0 L 7.0 147.0 L 8.0 148.0 L 8.0 153.0 L 9.0 155.0 L 10.0 155.0 L 12.0 159.0 L 12.0 161.0 L 13.0 163.0 L 14.0 163.0 L 16.0 167.0 L 16.0 169.0 L 17.0 171.0 L 18.0 171.0 L 20.0 173.0 L 20.0 174.0 L 22.0 175.0 L 25.0 179.0 L 26.0 179.0 L 28.0 183.0 L 28.0 185.0 L 29.0 187.0 L 30.0 187.0 L 33.0 191.0 L 34.0 191.0 L 37.0 194.0 L 43.0 196.0 L 44.0 198.0 L 46.0 199.0 L 48.0 201.0 L 48.0 202.0 L 50.0 203.0 L 53.0 206.0 L 55.0 207.0 L 57.0 207.0 L 61.0 210.0 L 67.0 212.0 L 69.0 214.0 L 71.0 214.0 L 72.0 215.0 L 81.0 215.0 L 85.0 218.0 L 87.0 218.0 L 88.0 219.0 L 97.0 219.0 L 99.0 221.0 L 103.0 223.0 L 119.0 223.0 L 123.0 221.0 L 125.0 219.0 L 134.0 219.0 L 135.0 218.0 L 137.0 218.0 L 139.0 217.0 L 139.0 216.0 L 141.0 215.0 L 146.0 215.0 L 147.0 214.0 L 149.0 214.0 L 151.0 213.0 L 151.0 212.0 L 153.0 211.0 L 155.0 211.0 L 159.0 209.0 L 159.0 208.0 L 161.0 207.0 L 163.0 207.0 L 167.0 205.0 L 167.0 204.0 L 169.0 203.0 L 171.0 201.0 L 171.0 200.0 L 173.0 199.0 L 175.0 199.0 L 179.0 197.0 L 179.0 196.0 L 181.0 195.0 L 183.0 193.0 L 183.0 192.0 L 185.0 191.0 L 187.0 189.0 L 187.0 188.0 L 191.0 185.0 L 192.0 183.0 L 193.0 183.0 L 195.0 179.0 L 195.0 177.0 L 196.0 175.0 L 197.0 175.0 L 199.0 173.0 L 199.0 172.0 L 201.0 171.0 L 203.0 167.0 L 203.0 165.0 L 204.0 163.0 L 205.0 163.0 L 207.0 161.0 L 207.0 160.0 L 209.0 159.0 L 211.0 155.0 L 211.0 153.0 L 214.0 149.0 L 214.0 147.0 L 215.0 146.0 L 215.0 141.0 L 216.0 139.0 L 217.0 139.0 L 219.0 137.0 L 219.0 136.0 L 221.0 135.0 L 223.0 131.0 L 223.0 83.0 L 221.0 79.0 L 219.0 77.0 L 219.0 75.0 L 215.0 69.0 L 215.0 64.0 L 214.0 63.0 L 214.0 61.0 L 211.0 58.0 L 211.0 57.0 L 208.0 55.0 L 206.0 49.0 L 203.0 46.0 L 203.0 45.0 L 201.0 44.0 L 199.0 42.0 L 199.0 41.0 L 197.0 40.0 L 195.0 38.0 L 195.0 37.0 L 193.0 36.0 L 191.0 34.0 L 191.0 33.0 L 189.0 32.0 L 187.0 30.0 L 187.0 29.0 L 185.0 28.0 L 183.0 26.0 L 183.0 25.0 L 179.0 22.0 L 179.0 21.0 L 177.0 20.0 L 175.0 20.0 L 171.0 18.0 L 171.0 17.0 L 169.0 16.0 L 167.0 16.0 L 163.0 14.0 L 163.0 13.0 L 161.0 12.0 L 159.0 12.0 L 155.0 10.0 L 155.0 9.0 L 153.0 8.0 L 148.0 8.0 L 147.0 7.0 L 145.0 7.0 L 143.0 6.0 L 143.0 5.0 L 141.0 4.0 L 128.0 4.0 L 127.0 3.0 L 125.0 3.0 L 121.0 0.0 Z" fill="currentColor" fill-rule="evenodd" />
</svg>