<svg xmlns="http://www.w3.org/2000/svg" viewBox="0 0 121 74" width="100%" height="100%">
  <path d="M 117.55 12.75 L 116.10 10.00 L 113.45 6.50 L 110.50 4.10 L 106.50 2.10 L 102.50 1.00 L 96.50 0.25 L 94.25 0.25 L 83.75 2.10 L 82.50 2.65 L 79.75 3.15 L 78.25 3.85 L 76.25 4.10 L 74.50 4.90 L 72.50 5.10 L 71.00 5.90 L 68.75 6.15 L 67.00 6.90 L 53.75 9.75 L 46.25 11.00 L 44.50 11.00 L 40.00 12.00 L 37.00 12.00 L 33.25 13.00 L 29.75 13.00 L 26.50 13.95 L 24.00 14.00 L 21.25 14.90 L 18.75 15.20 L 12.50 17.10 L 8.50 18.95 L 6.00 20.50 L 3.35 23.25 L 1.15 27.50 L 0.25 32.00 L 0.25 34.25 L 1.40 41.50 L 4.25 50.50 L 6.20 55.25 L 8.90 60.00 L 12.00 64.25 L 15.00 67.25 L 20.25 70.60 L 23.00 71.65 L 27.75 72.75 L 37.50 73.00 L 47.50 71.75 L 53.50 70.60 L 55.25 69.90 L 58.00 69.60 L 59.50 68.90 L 62.00 68.65 L 63.50 67.85 L 65.75 67.60 L 83.00 62.65 L 84.50 61.90 L 86.25 61.65 L 87.75 60.85 L 89.25 60.65 L 90.75 59.80 L 92.00 59.65 L 99.50 56.55 L 107.50 52.40 L 114.25 47.00 L 116.30 44.50 L 118.70 40.25 L 119.75 36.75 L 120.50 30.25 L 119.75 21.50 L 118.95 18.75 L 118.65 16.00 Z" fill="currentColor" fill-rule="evenodd" />
</svg>