<svg xmlns="http://www.w3.org/2000/svg" viewBox="0 0 142 79" width="100%" height="100%">
  <path d="M 2.56 17.00 L 0.56 25.00 L 0.00 30.00 L 0.00 43.00 L 0.44 47.00 L 1.22 50.00 L 3.78 55.00 L 9.00 60.22 L 14.00 63.11 L 24.00 67.33 L 29.00 68.78 L 41.00 71.33 L 52.00 72.78 L 61.00 74.44 L 86.00 77.00 L 93.00 77.00 L 102.00 78.00 L 109.00 78.00 L 121.00 76.56 L 125.00 75.67 L 129.00 74.22 L 133.00 72.00 L 135.78 69.67 L 137.89 67.00 L 139.33 64.00 L 140.67 59.00 L 141.00 56.00 L 141.00 36.00 L 140.33 30.00 L 138.67 24.00 L 135.33 18.00 L 131.00 13.44 L 125.00 9.33 L 119.00 6.67 L 108.00 3.33 L 101.00 1.78 L 83.00 0.00 L 46.00 0.00 L 37.00 1.00 L 33.00 1.00 L 25.00 2.22 L 18.00 4.11 L 13.00 6.00 L 10.00 7.78 L 6.22 11.11 L 4.00 14.00 Z" fill="currentColor" fill-rule="evenodd" />
</svg>