<svg xmlns="http://www.w3.org/2000/svg" viewBox="0 0 508 304" width="100%" height="100%">
  <path d="M 490.0 41.0 L 487.0 38.0 L 487.0 37.0 L 484.0 35.0 L 483.0 33.0 L 483.0 31.0 L 482.0 29.0 L 479.0 26.0 L 479.0 25.0 L 477.0 24.0 L 475.0 22.0 L 475.0 21.0 L 471.0 18.0 L 471.0 17.0 L 469.0 16.0 L 467.0 16.0 L 463.0 14.0 L 463.0 13.0 L 461.0 12.0 L 459.0 10.0 L 459.0 9.0 L 457.0 8.0 L 452.0 8.0 L 451.0 7.0 L 449.0 7.0 L 447.0 6.0 L 447.0 5.0 L 445.0 4.0 L 440.0 4.0 L 439.0 3.0 L 437.0 3.0 L 433.0 0.0 L 373.0 0.0 L 369.0 3.0 L 367.0 3.0 L 366.0 4.0 L 361.0 4.0 L 359.0 6.0 L 357.0 7.0 L 355.0 7.0 L 354.0 8.0 L 341.0 8.0 L 337.0 11.0 L 335.0 11.0 L 334.0 12.0 L 329.0 12.0 L 327.0 14.0 L 325.0 15.0 L 323.0 15.0 L 322.0 16.0 L 313.0 16.0 L 311.0 18.0 L 309.0 19.0 L 307.0 19.0 L 306.0 20.0 L 297.0 20.0 L 295.0 22.0 L 293.0 23.0 L 291.0 23.0 L 290.0 24.0 L 281.0 24.0 L 279.0 26.0 L 277.0 27.0 L 275.0 27.0 L 274.0 28.0 L 265.0 28.0 L 261.0 31.0 L 259.0 31.0 L 258.0 32.0 L 249.0 32.0 L 247.0 34.0 L 245.0 35.0 L 243.0 35.0 L 242.0 36.0 L 225.0 36.0 L 221.0 39.0 L 219.0 39.0 L 218.0 40.0 L 209.0 40.0 L 207.0 42.0 L 205.0 43.0 L 203.0 43.0 L 202.0 44.0 L 177.0 44.0 L 175.0 46.0 L 173.0 47.0 L 171.0 47.0 L 170.0 48.0 L 149.0 48.0 L 147.0 50.0 L 145.0 51.0 L 143.0 51.0 L 142.0 52.0 L 125.0 52.0 L 123.0 54.0 L 121.0 55.0 L 119.0 55.0 L 118.0 56.0 L 97.0 56.0 L 95.0 58.0 L 93.0 59.0 L 91.0 59.0 L 90.0 60.0 L 81.0 60.0 L 79.0 62.0 L 77.0 63.0 L 75.0 63.0 L 74.0 64.0 L 65.0 64.0 L 61.0 67.0 L 59.0 67.0 L 58.0 68.0 L 53.0 68.0 L 51.0 70.0 L 49.0 71.0 L 47.0 71.0 L 46.0 72.0 L 41.0 72.0 L 37.0 76.0 L 36.0 76.0 L 35.0 78.0 L 31.0 80.0 L 29.0 80.0 L 27.0 82.0 L 23.0 84.0 L 21.0 84.0 L 21.0 85.0 L 20.0 85.0 L 20.0 87.0 L 18.0 91.0 L 16.0 92.0 L 16.0 93.0 L 13.0 96.0 L 12.0 96.0 L 12.0 97.0 L 8.0 101.0 L 8.0 103.0 L 6.0 107.0 L 4.0 109.0 L 4.0 118.0 L 3.0 119.0 L 3.0 121.0 L 0.0 125.0 L 0.0 145.0 L 3.0 149.0 L 3.0 151.0 L 4.0 152.0 L 4.0 169.0 L 7.0 173.0 L 7.0 175.0 L 8.0 176.0 L 8.0 181.0 L 9.0 183.0 L 10.0 183.0 L 11.0 185.0 L 11.0 187.0 L 12.0 188.0 L 12.0 197.0 L 13.0 199.0 L 14.0 199.0 L 16.0 203.0 L 16.0 205.0 L 19.0 209.0 L 19.0 211.0 L 20.0 212.0 L 20.0 217.0 L 21.0 219.0 L 22.0 219.0 L 24.0 223.0 L 24.0 225.0 L 25.0 227.0 L 26.0 227.0 L 28.0 231.0 L 28.0 233.0 L 29.0 235.0 L 30.0 235.0 L 32.0 239.0 L 32.0 241.0 L 33.0 243.0 L 34.0 243.0 L 36.0 245.0 L 36.0 246.0 L 38.0 247.0 L 40.0 251.0 L 40.0 253.0 L 41.0 255.0 L 42.0 255.0 L 44.0 257.0 L 44.0 258.0 L 46.0 259.0 L 49.0 263.0 L 50.0 263.0 L 52.0 267.0 L 52.0 269.0 L 53.0 269.0 L 53.0 270.0 L 55.0 271.0 L 57.0 271.0 L 59.0 272.0 L 60.0 274.0 L 62.0 275.0 L 64.0 277.0 L 64.0 278.0 L 66.0 279.0 L 68.0 281.0 L 68.0 282.0 L 70.0 283.0 L 73.0 286.0 L 75.0 287.0 L 77.0 287.0 L 81.0 290.0 L 87.0 292.0 L 89.0 294.0 L 91.0 294.0 L 92.0 295.0 L 97.0 295.0 L 101.0 298.0 L 103.0 298.0 L 104.0 299.0 L 121.0 299.0 L 123.0 301.0 L 127.0 303.0 L 155.0 303.0 L 159.0 301.0 L 161.0 299.0 L 190.0 299.0 L 191.0 298.0 L 193.0 298.0 L 195.0 297.0 L 195.0 296.0 L 197.0 295.0 L 210.0 295.0 L 211.0 294.0 L 213.0 294.0 L 215.0 293.0 L 215.0 292.0 L 217.0 291.0 L 226.0 291.0 L 227.0 290.0 L 229.0 290.0 L 233.0 287.0 L 246.0 287.0 L 247.0 286.0 L 249.0 286.0 L 251.0 285.0 L 251.0 284.0 L 253.0 283.0 L 258.0 283.0 L 259.0 282.0 L 261.0 282.0 L 265.0 279.0 L 278.0 279.0 L 279.0 278.0 L 281.0 278.0 L 283.0 277.0 L 283.0 276.0 L 285.0 275.0 L 290.0 275.0 L 291.0 274.0 L 293.0 274.0 L 297.0 271.0 L 306.0 271.0 L 307.0 270.0 L 309.0 270.0 L 311.0 269.0 L 311.0 268.0 L 313.0 267.0 L 318.0 267.0 L 319.0 266.0 L 321.0 266.0 L 323.0 265.0 L 323.0 264.0 L 325.0 263.0 L 330.0 263.0 L 331.0 262.0 L 333.0 262.0 L 337.0 259.0 L 346.0 259.0 L 347.0 258.0 L 349.0 258.0 L 351.0 257.0 L 351.0 256.0 L 353.0 255.0 L 358.0 255.0 L 359.0 254.0 L 361.0 254.0 L 363.0 253.0 L 363.0 252.0 L 365.0 251.0 L 370.0 251.0 L 371.0 250.0 L 373.0 250.0 L 375.0 249.0 L 375.0 248.0 L 377.0 247.0 L 379.0 247.0 L 383.0 245.0 L 383.0 244.0 L 385.0 243.0 L 394.0 243.0 L 395.0 242.0 L 397.0 242.0 L 399.0 241.0 L 399.0 240.0 L 401.0 239.0 L 403.0 239.0 L 407.0 237.0 L 407.0 236.0 L 409.0 235.0 L 411.0 235.0 L 415.0 233.0 L 415.0 232.0 L 417.0 231.0 L 422.0 231.0 L 423.0 230.0 L 425.0 230.0 L 427.0 229.0 L 427.0 228.0 L 429.0 227.0 L 431.0 225.0 L 431.0 224.0 L 433.0 223.0 L 438.0 223.0 L 439.0 222.0 L 441.0 222.0 L 443.0 221.0 L 443.0 220.0 L 445.0 219.0 L 447.0 217.0 L 447.0 216.0 L 449.0 215.0 L 451.0 215.0 L 455.0 213.0 L 455.0 212.0 L 457.0 211.0 L 459.0 209.0 L 459.0 208.0 L 461.0 207.0 L 463.0 207.0 L 467.0 205.0 L 467.0 204.0 L 469.0 203.0 L 471.0 201.0 L 471.0 200.0 L 473.0 199.0 L 475.0 197.0 L 475.0 196.0 L 477.0 195.0 L 479.0 193.0 L 479.0 192.0 L 481.0 191.0 L 483.0 189.0 L 483.0 188.0 L 487.0 185.0 L 488.0 183.0 L 489.0 183.0 L 491.0 179.0 L 491.0 177.0 L 492.0 175.0 L 493.0 175.0 L 495.0 171.0 L 495.0 169.0 L 496.0 167.0 L 497.0 167.0 L 499.0 163.0 L 499.0 161.0 L 502.0 157.0 L 502.0 155.0 L 503.0 154.0 L 503.0 141.0 L 505.0 139.0 L 507.0 135.0 L 507.0 107.0 L 505.0 103.0 L 503.0 101.0 L 503.0 76.0 L 502.0 75.0 L 502.0 73.0 L 499.0 69.0 L 499.0 64.0 L 498.0 63.0 L 498.0 61.0 L 495.0 57.0 L 495.0 52.0 L 494.0 51.0 L 494.0 49.0 L 491.0 45.0 L 491.0 43.0 Z" fill="currentColor" fill-rule="evenodd" />
</svg>