<svg xmlns="http://www.w3.org/2000/svg" viewBox="0 0 55 55" width="100%" height="100%">
  <path d="M 23.50 1.00 L 19.00 2.10 L 14.25 4.30 L 8.75 8.50 L 6.45 11.25 L 4.20 14.75 L 2.10 19.50 L 1.90 21.75 L 1.00 24.50 L 1.00 30.00 L 1.85 32.75 L 2.10 35.00 L 4.05 39.50 L 7.15 44.25 L 9.75 47.00 L 14.75 50.50 L 19.50 52.65 L 21.50 52.90 L 24.25 53.75 L 30.50 53.75 L 35.00 52.65 L 37.75 51.50 L 41.50 49.35 L 45.50 46.00 L 49.05 41.75 L 52.55 35.50 L 54.35 30.25 L 54.75 28.00 L 54.50 22.25 L 52.55 16.50 L 49.65 11.75 L 46.75 8.50 L 42.75 5.35 L 36.50 2.20 L 32.50 1.15 L 28.75 0.75 Z" fill="currentColor" fill-rule="evenodd" />
</svg>