<svg xmlns="http://www.w3.org/2000/svg" viewBox="0 0 142 79" width="100%" height="100%">
  <path d="M 2.74 18.50 L 1.10 24.50 L 0.00 33.25 L 0.12 44.25 L 1.92 51.00 L 4.98 56.00 L 9.50 60.25 L 15.00 63.58 L 23.50 67.06 L 34.75 70.17 L 53.75 73.61 L 82.00 76.69 L 93.75 77.63 L 107.00 78.00 L 114.75 77.65 L 120.75 76.85 L 129.00 74.52 L 133.25 72.18 L 136.13 69.70 L 138.40 66.75 L 140.15 63.00 L 141.65 55.75 L 141.50 39.50 L 140.68 30.50 L 138.62 23.75 L 135.01 18.00 L 129.75 12.93 L 123.25 8.94 L 115.25 5.74 L 107.25 3.62 L 99.25 2.20 L 87.25 1.00 L 52.25 0.75 L 40.00 1.10 L 30.00 2.08 L 18.25 4.62 L 11.50 7.70 L 6.45 12.00 L 4.36 15.00 Z" fill="currentColor" fill-rule="evenodd" />
</svg>