<svg xmlns="http://www.w3.org/2000/svg" viewBox="0 0 121 74" width="100%" height="100%">
  <path d="M 116.82 11.50 L 113.36 6.65 L 108.50 3.08 L 102.00 0.99 L 94.50 0.33 L 86.25 1.60 L 56.50 9.13 L 29.50 13.23 L 17.25 15.64 L 12.25 17.27 L 7.75 19.50 L 4.60 22.05 L 2.25 25.25 L 1.01 28.50 L 0.35 32.75 L 1.81 42.75 L 5.58 53.50 L 9.96 61.50 L 15.25 67.30 L 21.00 70.79 L 28.75 72.77 L 38.75 72.85 L 51.50 70.89 L 63.75 68.04 L 84.25 62.14 L 97.25 57.44 L 107.75 52.11 L 114.60 46.48 L 117.31 42.75 L 118.73 39.75 L 119.63 36.75 L 120.26 32.00 L 119.68 22.00 L 118.20 15.00 Z" fill="currentColor" fill-rule="evenodd" />
</svg>