<svg xmlns="http://www.w3.org/2000/svg" viewBox="0 0 596 324" width="100%" height="100%">
  <path d="M 8.0 77.0 L 8.0 82.0 L 7.0 83.0 L 7.0 85.0 L 6.0 87.0 L 4.0 89.0 L 4.0 110.0 L 3.0 111.0 L 3.0 113.0 L 0.0 117.0 L 0.0 189.0 L 3.0 193.0 L 3.0 195.0 L 4.0 196.0 L 4.0 205.0 L 5.0 207.0 L 6.0 207.0 L 8.0 211.0 L 8.0 213.0 L 9.0 215.0 L 10.0 215.0 L 12.0 219.0 L 12.0 221.0 L 13.0 223.0 L 14.0 223.0 L 16.0 225.0 L 16.0 226.0 L 18.0 227.0 L 20.0 229.0 L 20.0 230.0 L 22.0 231.0 L 24.0 233.0 L 24.0 234.0 L 26.0 235.0 L 28.0 237.0 L 28.0 238.0 L 30.0 239.0 L 32.0 241.0 L 32.0 242.0 L 36.0 245.0 L 37.0 247.0 L 38.0 247.0 L 41.0 250.0 L 47.0 252.0 L 48.0 254.0 L 50.0 255.0 L 53.0 258.0 L 55.0 259.0 L 57.0 259.0 L 61.0 262.0 L 63.0 262.0 L 64.0 263.0 L 69.0 263.0 L 75.0 267.0 L 77.0 267.0 L 81.0 270.0 L 87.0 272.0 L 89.0 274.0 L 91.0 274.0 L 92.0 275.0 L 97.0 275.0 L 101.0 278.0 L 103.0 278.0 L 104.0 279.0 L 109.0 279.0 L 113.0 282.0 L 115.0 282.0 L 116.0 283.0 L 125.0 283.0 L 129.0 286.0 L 131.0 286.0 L 132.0 287.0 L 141.0 287.0 L 145.0 290.0 L 147.0 290.0 L 148.0 291.0 L 161.0 291.0 L 165.0 294.0 L 167.0 294.0 L 168.0 295.0 L 181.0 295.0 L 185.0 298.0 L 187.0 298.0 L 188.0 299.0 L 209.0 299.0 L 213.0 302.0 L 215.0 302.0 L 216.0 303.0 L 229.0 303.0 L 233.0 306.0 L 235.0 306.0 L 236.0 307.0 L 269.0 307.0 L 273.0 310.0 L 275.0 310.0 L 276.0 311.0 L 301.0 311.0 L 305.0 314.0 L 307.0 314.0 L 308.0 315.0 L 349.0 315.0 L 353.0 318.0 L 355.0 318.0 L 356.0 319.0 L 405.0 319.0 L 407.0 321.0 L 411.0 323.0 L 475.0 323.0 L 479.0 321.0 L 481.0 319.0 L 506.0 319.0 L 507.0 318.0 L 509.0 318.0 L 511.0 317.0 L 511.0 316.0 L 513.0 315.0 L 526.0 315.0 L 527.0 314.0 L 529.0 314.0 L 531.0 313.0 L 531.0 312.0 L 533.0 311.0 L 535.0 311.0 L 539.0 309.0 L 539.0 308.0 L 541.0 307.0 L 546.0 307.0 L 547.0 306.0 L 549.0 306.0 L 551.0 305.0 L 551.0 304.0 L 553.0 303.0 L 555.0 303.0 L 559.0 301.0 L 559.0 300.0 L 561.0 299.0 L 563.0 297.0 L 563.0 296.0 L 565.0 295.0 L 567.0 293.0 L 567.0 292.0 L 569.0 291.0 L 571.0 289.0 L 571.0 288.0 L 573.0 287.0 L 575.0 285.0 L 575.0 284.0 L 579.0 281.0 L 580.0 279.0 L 581.0 279.0 L 583.0 275.0 L 583.0 273.0 L 584.0 271.0 L 585.0 271.0 L 587.0 267.0 L 587.0 265.0 L 588.0 263.0 L 589.0 263.0 L 590.0 261.0 L 590.0 259.0 L 591.0 258.0 L 591.0 249.0 L 593.0 247.0 L 595.0 243.0 L 595.0 131.0 L 593.0 127.0 L 591.0 125.0 L 591.0 112.0 L 590.0 111.0 L 590.0 109.0 L 588.0 107.0 L 587.0 105.0 L 587.0 103.0 L 583.0 97.0 L 583.0 95.0 L 580.0 91.0 L 578.0 85.0 L 575.0 82.0 L 575.0 81.0 L 572.0 79.0 L 570.0 73.0 L 567.0 70.0 L 567.0 69.0 L 565.0 68.0 L 563.0 66.0 L 563.0 65.0 L 561.0 64.0 L 559.0 62.0 L 559.0 61.0 L 557.0 60.0 L 555.0 58.0 L 555.0 57.0 L 553.0 56.0 L 551.0 54.0 L 551.0 53.0 L 547.0 50.0 L 547.0 49.0 L 545.0 48.0 L 543.0 48.0 L 539.0 46.0 L 539.0 45.0 L 537.0 44.0 L 535.0 42.0 L 535.0 41.0 L 533.0 40.0 L 531.0 40.0 L 527.0 38.0 L 527.0 37.0 L 525.0 36.0 L 523.0 36.0 L 519.0 34.0 L 519.0 33.0 L 517.0 32.0 L 515.0 32.0 L 511.0 30.0 L 511.0 29.0 L 509.0 28.0 L 504.0 28.0 L 503.0 27.0 L 501.0 27.0 L 499.0 26.0 L 499.0 25.0 L 497.0 24.0 L 495.0 24.0 L 491.0 22.0 L 491.0 21.0 L 489.0 20.0 L 480.0 20.0 L 479.0 19.0 L 477.0 19.0 L 475.0 18.0 L 475.0 17.0 L 473.0 16.0 L 464.0 16.0 L 463.0 15.0 L 461.0 15.0 L 457.0 12.0 L 444.0 12.0 L 443.0 11.0 L 441.0 11.0 L 439.0 10.0 L 439.0 9.0 L 437.0 8.0 L 420.0 8.0 L 419.0 7.0 L 417.0 7.0 L 415.0 6.0 L 415.0 5.0 L 413.0 4.0 L 380.0 4.0 L 379.0 3.0 L 377.0 3.0 L 373.0 0.0 L 173.0 0.0 L 169.0 3.0 L 167.0 3.0 L 166.0 4.0 L 129.0 4.0 L 127.0 6.0 L 125.0 7.0 L 123.0 7.0 L 122.0 8.0 L 101.0 8.0 L 99.0 10.0 L 97.0 11.0 L 95.0 11.0 L 94.0 12.0 L 85.0 12.0 L 81.0 15.0 L 79.0 15.0 L 78.0 16.0 L 73.0 16.0 L 71.0 18.0 L 69.0 19.0 L 67.0 19.0 L 66.0 20.0 L 61.0 20.0 L 59.0 22.0 L 55.0 24.0 L 53.0 24.0 L 51.0 26.0 L 47.0 28.0 L 45.0 28.0 L 41.0 32.0 L 40.0 32.0 L 40.0 33.0 L 37.0 36.0 L 36.0 36.0 L 36.0 37.0 L 33.0 40.0 L 32.0 40.0 L 32.0 41.0 L 29.0 44.0 L 28.0 44.0 L 28.0 45.0 L 25.0 48.0 L 24.0 48.0 L 24.0 49.0 L 21.0 52.0 L 20.0 52.0 L 20.0 53.0 L 16.0 57.0 L 16.0 62.0 L 15.0 63.0 L 15.0 65.0 L 12.0 69.0 L 12.0 71.0 L 10.0 75.0 Z" fill="currentColor" fill-rule="evenodd" />
</svg>