<svg xmlns="http://www.w3.org/2000/svg" viewBox="0 0 121 74" width="100%" height="100%">
  <path d="M 117.11 12.00 L 113.78 7.00 L 112.00 5.22 L 108.00 2.44 L 102.00 0.44 L 93.00 0.00 L 88.00 0.56 L 80.00 2.33 L 68.00 6.11 L 57.00 8.44 L 46.00 10.33 L 34.00 11.78 L 17.00 15.11 L 12.00 16.67 L 7.00 19.11 L 4.33 21.33 L 1.67 25.00 L 0.33 29.00 L 0.00 34.00 L 0.56 39.00 L 2.00 45.00 L 5.78 55.00 L 9.89 62.00 L 14.00 66.44 L 16.00 68.00 L 20.00 70.44 L 24.00 71.78 L 28.00 72.56 L 35.00 73.00 L 48.00 71.44 L 59.00 69.11 L 68.00 66.33 L 78.00 63.89 L 92.00 59.22 L 103.89 54.11 L 110.11 50.11 L 113.78 46.89 L 116.22 44.00 L 119.11 38.00 L 120.00 32.00 L 120.00 26.00 L 119.33 20.00 L 118.22 15.00 Z" fill="currentColor" fill-rule="evenodd" />
</svg>