<svg xmlns="http://www.w3.org/2000/svg" viewBox="0 0 142 79" width="100%" height="100%">
  <path d="M 2.00 17.00 L 2.00 20.00 L 1.00 21.00 L 1.00 25.00 L 0.00 26.00 L 0.00 47.00 L 1.00 48.00 L 1.00 51.00 L 2.00 52.00 L 2.00 53.00 L 4.00 55.00 L 4.00 56.00 L 8.00 60.00 L 9.00 60.00 L 11.00 62.00 L 12.00 62.00 L 13.00 63.00 L 14.00 63.00 L 15.00 64.00 L 17.00 64.00 L 18.00 65.00 L 19.00 65.00 L 20.00 66.00 L 21.00 66.00 L 22.00 67.00 L 24.00 67.00 L 25.00 68.00 L 27.00 68.00 L 28.00 69.00 L 32.00 69.00 L 33.00 70.00 L 36.00 70.00 L 37.00 71.00 L 42.00 71.00 L 43.00 72.00 L 49.00 72.00 L 50.00 73.00 L 56.00 73.00 L 57.00 74.00 L 61.00 74.00 L 62.00 75.00 L 71.00 75.00 L 72.00 76.00 L 81.00 76.00 L 82.00 77.00 L 97.00 77.00 L 98.00 78.00 L 113.00 78.00 L 114.00 77.00 L 121.00 77.00 L 122.00 76.00 L 125.00 76.00 L 126.00 75.00 L 129.00 75.00 L 131.00 73.00 L 132.00 73.00 L 134.00 71.00 L 135.00 71.00 L 138.00 68.00 L 138.00 67.00 L 139.00 66.00 L 139.00 64.00 L 140.00 63.00 L 140.00 61.00 L 141.00 60.00 L 141.00 32.00 L 140.00 31.00 L 140.00 26.00 L 139.00 25.00 L 139.00 24.00 L 138.00 23.00 L 138.00 22.00 L 137.00 21.00 L 137.00 20.00 L 136.00 19.00 L 136.00 18.00 L 131.00 13.00 L 130.00 13.00 L 127.00 10.00 L 126.00 10.00 L 125.00 9.00 L 124.00 9.00 L 123.00 8.00 L 122.00 8.00 L 121.00 7.00 L 119.00 7.00 L 118.00 6.00 L 116.00 6.00 L 115.00 5.00 L 113.00 5.00 L 112.00 4.00 L 108.00 4.00 L 107.00 3.00 L 106.00 3.00 L 105.00 2.00 L 99.00 2.00 L 98.00 1.00 L 88.00 1.00 L 87.00 0.00 L 42.00 0.00 L 41.00 1.00 L 29.00 1.00 L 28.00 2.00 L 24.00 2.00 L 23.00 3.00 L 21.00 3.00 L 20.00 4.00 L 17.00 4.00 L 16.00 5.00 L 14.00 5.00 L 13.00 6.00 L 12.00 6.00 L 10.00 8.00 L 9.00 8.00 L 4.00 13.00 L 4.00 14.00 L 3.00 15.00 L 3.00 16.00 Z" fill="currentColor" fill-rule="evenodd" />
</svg>