<svg xmlns="http://www.w3.org/2000/svg" viewBox="0 0 55 55" width="100%" height="100%">
  <path d="M 24.00 0.00 L 23.00 1.00 L 19.00 1.00 L 18.00 2.00 L 16.00 2.00 L 15.00 3.00 L 14.00 3.00 L 11.00 6.00 L 10.00 6.00 L 5.00 11.00 L 5.00 12.00 L 4.00 13.00 L 4.00 14.00 L 3.00 15.00 L 3.00 17.00 L 2.00 18.00 L 2.00 20.00 L 1.00 21.00 L 1.00 24.00 L 0.00 25.00 L 0.00 29.00 L 1.00 30.00 L 1.00 32.00 L 2.00 33.00 L 2.00 36.00 L 3.00 37.00 L 3.00 39.00 L 4.00 40.00 L 4.00 41.00 L 6.00 43.00 L 6.00 44.00 L 9.00 47.00 L 10.00 47.00 L 13.00 50.00 L 14.00 50.00 L 15.00 51.00 L 16.00 51.00 L 17.00 52.00 L 19.00 52.00 L 20.00 53.00 L 24.00 53.00 L 25.00 54.00 L 29.00 54.00 L 30.00 53.00 L 34.00 53.00 L 35.00 52.00 L 37.00 52.00 L 39.00 50.00 L 40.00 50.00 L 41.00 49.00 L 42.00 49.00 L 47.00 44.00 L 47.00 43.00 L 48.00 42.00 L 49.00 42.00 L 49.00 41.00 L 51.00 39.00 L 51.00 38.00 L 52.00 37.00 L 52.00 35.00 L 53.00 34.00 L 53.00 32.00 L 54.00 31.00 L 54.00 20.00 L 53.00 19.00 L 53.00 17.00 L 52.00 16.00 L 52.00 15.00 L 51.00 14.00 L 51.00 13.00 L 50.00 12.00 L 50.00 11.00 L 46.00 7.00 L 45.00 7.00 L 43.00 5.00 L 42.00 5.00 L 40.00 3.00 L 39.00 3.00 L 38.00 2.00 L 36.00 2.00 L 35.00 1.00 L 31.00 1.00 L 30.00 0.00 Z" fill="currentColor" fill-rule="evenodd" />
</svg>