<svg xmlns="http://www.w3.org/2000/svg" viewBox="0 0 142 79" width="100%" height="100%">
  <path d="M 2.35 19.25 L 1.20 23.50 L 0.00 31.00 L 0.00 44.75 L 1.20 49.50 L 2.25 52.00 L 5.25 56.50 L 7.75 59.00 L 10.25 60.85 L 16.75 64.50 L 25.00 67.70 L 26.75 67.90 L 28.25 68.65 L 42.25 71.75 L 48.00 72.75 L 49.50 72.75 L 54.00 73.75 L 57.00 73.75 L 61.25 74.75 L 66.25 74.75 L 71.00 75.75 L 75.75 75.75 L 81.25 76.75 L 88.50 77.00 L 94.00 77.75 L 101.25 77.75 L 102.50 78.00 L 114.75 77.75 L 122.00 76.75 L 124.50 75.90 L 126.50 75.65 L 131.50 73.40 L 135.00 71.00 L 137.30 68.50 L 138.95 66.00 L 140.60 62.00 L 141.75 55.75 L 141.50 37.25 L 140.40 28.50 L 138.55 23.50 L 137.10 20.75 L 135.00 17.75 L 131.50 14.25 L 129.50 12.70 L 123.50 9.00 L 119.25 7.10 L 114.25 5.35 L 112.00 4.90 L 110.25 4.15 L 107.50 3.90 L 105.00 3.00 L 102.50 3.00 L 99.25 2.00 L 95.00 2.00 L 89.25 1.00 L 50.25 0.75 L 49.00 1.00 L 40.00 1.00 L 33.25 2.00 L 29.25 2.00 L 26.75 2.80 L 23.75 3.00 L 21.50 3.85 L 19.25 4.15 L 16.25 5.25 L 10.75 8.10 L 8.75 9.50 L 5.30 13.25 Z" fill="currentColor" fill-rule="evenodd" />
</svg>