<svg xmlns="http://www.w3.org/2000/svg" viewBox="0 0 55 55" width="100%" height="100%">
  <path d="M 25.50 0.89 L 21.00 1.67 L 16.25 3.38 L 11.75 6.12 L 7.51 10.02 L 4.71 14.00 L 2.74 18.25 L 1.23 24.25 L 1.05 29.00 L 1.89 33.50 L 3.89 39.00 L 6.50 43.25 L 9.75 46.85 L 14.50 50.26 L 18.75 52.23 L 24.75 53.63 L 29.25 53.71 L 35.25 52.39 L 39.50 50.50 L 43.50 47.70 L 46.75 44.50 L 50.23 39.75 L 52.76 34.75 L 54.49 29.00 L 54.65 24.50 L 53.81 20.00 L 51.98 15.50 L 48.75 10.75 L 45.25 7.30 L 40.75 4.26 L 36.00 2.21 L 30.50 0.96 Z" fill="currentColor" fill-rule="evenodd" />
</svg>