<svg xmlns="http://www.w3.org/2000/svg" viewBox="0 0 55 55" width="100%" height="100%">
  <path d="M 26.00 0.22 L 20.00 1.22 L 16.00 2.56 L 12.00 4.89 L 7.22 9.11 L 5.00 12.00 L 2.67 17.00 L 0.44 25.00 L 0.44 28.00 L 1.22 32.00 L 4.00 40.00 L 5.78 43.00 L 9.11 46.56 L 13.00 49.44 L 17.00 51.56 L 24.00 53.44 L 29.00 53.56 L 36.00 51.78 L 40.00 49.78 L 43.89 46.78 L 48.00 42.44 L 51.00 38.00 L 53.00 33.00 L 53.67 30.00 L 54.00 24.00 L 53.22 19.00 L 51.22 14.00 L 49.33 11.00 L 46.00 7.56 L 42.00 4.67 L 37.00 2.11 L 31.00 0.56 Z" fill="currentColor" fill-rule="evenodd" />
</svg>