<svg xmlns="http://www.w3.org/2000/svg" viewBox="0 0 127 219" width="100%" height="100%">
  <path d="M 36.00 0.00 L 36.00 44.00 L 35.00 45.00 L 0.00 45.00 L 0.00 65.00 L 35.00 65.00 L 36.00 66.00 L 36.00 168.00 L 37.00 169.00 L 37.00 175.00 L 38.00 176.00 L 38.00 179.00 L 39.00 180.00 L 39.00 183.00 L 40.00 184.00 L 40.00 185.00 L 41.00 186.00 L 41.00 188.00 L 42.00 189.00 L 42.00 190.00 L 43.00 191.00 L 43.00 192.00 L 45.00 194.00 L 45.00 195.00 L 47.00 197.00 L 47.00 198.00 L 50.00 201.00 L 50.00 202.00 L 51.00 203.00 L 52.00 203.00 L 57.00 208.00 L 58.00 208.00 L 59.00 209.00 L 60.00 209.00 L 62.00 211.00 L 63.00 211.00 L 64.00 212.00 L 65.00 212.00 L 66.00 213.00 L 68.00 213.00 L 69.00 214.00 L 70.00 214.00 L 71.00 215.00 L 73.00 215.00 L 74.00 216.00 L 78.00 216.00 L 79.00 217.00 L 86.00 217.00 L 87.00 218.00 L 97.00 218.00 L 98.00 217.00 L 104.00 217.00 L 105.00 216.00 L 109.00 216.00 L 110.00 215.00 L 112.00 215.00 L 113.00 214.00 L 114.00 214.00 L 115.00 213.00 L 116.00 213.00 L 117.00 212.00 L 119.00 212.00 L 120.00 211.00 L 121.00 211.00 L 123.00 209.00 L 124.00 209.00 L 125.00 208.00 L 126.00 208.00 L 126.00 186.00 L 125.00 187.00 L 124.00 187.00 L 122.00 189.00 L 121.00 189.00 L 120.00 190.00 L 119.00 190.00 L 117.00 192.00 L 116.00 192.00 L 115.00 193.00 L 114.00 193.00 L 113.00 194.00 L 111.00 194.00 L 110.00 195.00 L 108.00 195.00 L 107.00 196.00 L 103.00 196.00 L 102.00 197.00 L 87.00 197.00 L 86.00 196.00 L 82.00 196.00 L 81.00 195.00 L 79.00 195.00 L 78.00 194.00 L 77.00 194.00 L 76.00 193.00 L 75.00 193.00 L 74.00 192.00 L 73.00 192.00 L 72.00 191.00 L 72.00 190.00 L 71.00 190.00 L 64.00 183.00 L 64.00 182.00 L 63.00 181.00 L 63.00 180.00 L 62.00 179.00 L 62.00 178.00 L 61.00 177.00 L 61.00 176.00 L 60.00 175.00 L 60.00 172.00 L 59.00 171.00 L 59.00 170.00 L 58.00 169.00 L 58.00 164.00 L 57.00 163.00 L 57.00 66.00 L 58.00 65.00 L 126.00 65.00 L 126.00 45.00 L 58.00 45.00 L 57.00 44.00 L 57.00 0.00 Z" fill="currentColor" fill-rule="evenodd" />
</svg>