<svg xmlns="http://www.w3.org/2000/svg" viewBox="0 0 127 219" width="100%" height="100%">
  <path d="M 38.33 0.33 L 36.67 1.67 L 36.00 4.00 L 36.00 40.00 L 35.33 42.67 L 33.67 44.33 L 31.00 45.00 L 4.00 45.00 L 1.67 45.67 L 0.33 47.33 L 0.00 49.00 L 0.00 61.00 L 0.33 62.67 L 1.11 63.89 L 3.11 64.89 L 31.00 65.00 L 33.67 65.67 L 34.89 66.67 L 35.67 68.11 L 36.00 70.00 L 36.00 164.00 L 37.44 175.00 L 40.56 186.00 L 44.67 194.00 L 48.11 199.00 L 54.00 205.11 L 58.00 208.11 L 63.00 211.11 L 68.00 213.44 L 73.00 215.22 L 78.00 216.44 L 91.00 218.00 L 105.00 216.44 L 112.00 214.56 L 122.00 210.00 L 124.33 208.11 L 125.33 206.56 L 126.00 204.00 L 126.00 190.00 L 125.33 188.11 L 124.33 187.78 L 122.89 188.11 L 113.00 193.56 L 109.00 195.00 L 103.00 196.44 L 98.00 197.00 L 91.00 197.00 L 83.00 195.78 L 76.00 193.22 L 69.78 188.67 L 66.22 185.00 L 63.33 181.00 L 59.78 173.00 L 57.67 165.00 L 57.00 159.00 L 57.00 70.00 L 57.33 68.11 L 58.11 66.67 L 59.33 65.67 L 62.00 65.00 L 122.00 65.00 L 123.67 64.67 L 125.33 63.33 L 126.00 61.00 L 126.00 49.00 L 125.67 47.33 L 124.33 45.67 L 122.00 45.00 L 62.00 45.00 L 59.33 44.33 L 57.67 42.67 L 57.00 40.00 L 57.00 4.00 L 56.67 2.33 L 55.33 0.67 L 53.00 0.00 L 40.00 0.00 Z" fill="currentColor" fill-rule="evenodd" />
</svg>