<svg xmlns="http://www.w3.org/2000/svg" viewBox="0 0 524 916" width="100%" height="100%">
  <path d="M 137.0 0.0 L 136.0 1.0 L 136.0 182.0 L 135.0 183.0 L 135.0 185.0 L 133.0 187.0 L 131.0 187.0 L 130.0 188.0 L 1.0 188.0 L 0.0 189.0 L 0.0 273.0 L 3.0 275.0 L 133.0 275.0 L 135.0 277.0 L 135.0 279.0 L 136.0 280.0 L 136.0 701.0 L 137.0 703.0 L 138.0 703.0 L 139.0 705.0 L 139.0 707.0 L 140.0 708.0 L 140.0 737.0 L 143.0 741.0 L 143.0 743.0 L 144.0 744.0 L 144.0 749.0 L 145.0 751.0 L 146.0 751.0 L 147.0 753.0 L 147.0 755.0 L 148.0 756.0 L 148.0 765.0 L 151.0 769.0 L 151.0 771.0 L 152.0 772.0 L 152.0 777.0 L 153.0 779.0 L 154.0 779.0 L 155.0 781.0 L 155.0 783.0 L 156.0 784.0 L 156.0 789.0 L 157.0 791.0 L 158.0 791.0 L 160.0 795.0 L 160.0 797.0 L 161.0 799.0 L 162.0 799.0 L 164.0 803.0 L 164.0 805.0 L 165.0 807.0 L 166.0 807.0 L 168.0 811.0 L 168.0 813.0 L 169.0 815.0 L 170.0 815.0 L 172.0 819.0 L 172.0 821.0 L 173.0 823.0 L 174.0 823.0 L 176.0 825.0 L 176.0 826.0 L 178.0 827.0 L 181.0 831.0 L 182.0 831.0 L 184.0 835.0 L 184.0 837.0 L 185.0 839.0 L 186.0 839.0 L 188.0 841.0 L 188.0 842.0 L 190.0 843.0 L 192.0 847.0 L 192.0 849.0 L 193.0 851.0 L 194.0 851.0 L 196.0 853.0 L 196.0 854.0 L 198.0 855.0 L 200.0 857.0 L 200.0 858.0 L 202.0 859.0 L 204.0 861.0 L 204.0 862.0 L 208.0 865.0 L 209.0 867.0 L 210.0 867.0 L 213.0 870.0 L 219.0 872.0 L 220.0 874.0 L 222.0 875.0 L 224.0 877.0 L 224.0 878.0 L 226.0 879.0 L 228.0 881.0 L 228.0 882.0 L 230.0 883.0 L 233.0 886.0 L 235.0 887.0 L 237.0 887.0 L 243.0 891.0 L 245.0 891.0 L 251.0 895.0 L 253.0 895.0 L 259.0 899.0 L 261.0 899.0 L 265.0 902.0 L 271.0 904.0 L 273.0 906.0 L 275.0 906.0 L 276.0 907.0 L 281.0 907.0 L 287.0 911.0 L 289.0 911.0 L 291.0 913.0 L 295.0 915.0 L 451.0 915.0 L 455.0 913.0 L 457.0 911.0 L 459.0 911.0 L 463.0 909.0 L 463.0 908.0 L 465.0 907.0 L 474.0 907.0 L 475.0 906.0 L 477.0 906.0 L 479.0 905.0 L 479.0 904.0 L 481.0 903.0 L 483.0 901.0 L 483.0 900.0 L 485.0 899.0 L 490.0 899.0 L 491.0 898.0 L 493.0 898.0 L 495.0 897.0 L 495.0 896.0 L 497.0 895.0 L 499.0 895.0 L 503.0 893.0 L 503.0 892.0 L 505.0 891.0 L 507.0 889.0 L 507.0 888.0 L 509.0 887.0 L 511.0 887.0 L 515.0 885.0 L 515.0 884.0 L 517.0 883.0 L 519.0 881.0 L 519.0 880.0 L 521.0 879.0 L 523.0 875.0 L 523.0 787.0 L 521.0 784.0 L 517.0 784.0 L 513.0 788.0 L 512.0 788.0 L 512.0 789.0 L 509.0 792.0 L 508.0 792.0 L 507.0 794.0 L 503.0 796.0 L 501.0 796.0 L 497.0 800.0 L 496.0 800.0 L 495.0 802.0 L 491.0 804.0 L 489.0 804.0 L 487.0 806.0 L 483.0 808.0 L 481.0 808.0 L 479.0 810.0 L 475.0 812.0 L 473.0 812.0 L 469.0 815.0 L 467.0 815.0 L 466.0 816.0 L 461.0 816.0 L 459.0 818.0 L 455.0 820.0 L 453.0 820.0 L 451.0 822.0 L 449.0 823.0 L 447.0 823.0 L 446.0 824.0 L 433.0 824.0 L 429.0 827.0 L 427.0 827.0 L 426.0 828.0 L 421.0 828.0 L 419.0 830.0 L 417.0 831.0 L 415.0 831.0 L 414.0 832.0 L 356.0 832.0 L 355.0 831.0 L 353.0 831.0 L 351.0 830.0 L 351.0 829.0 L 349.0 828.0 L 347.0 828.0 L 343.0 826.0 L 343.0 825.0 L 341.0 824.0 L 328.0 824.0 L 327.0 823.0 L 325.0 823.0 L 323.0 822.0 L 323.0 821.0 L 321.0 820.0 L 319.0 818.0 L 319.0 817.0 L 317.0 816.0 L 312.0 816.0 L 311.0 815.0 L 309.0 815.0 L 307.0 814.0 L 307.0 813.0 L 305.0 812.0 L 303.0 810.0 L 303.0 809.0 L 301.0 808.0 L 299.0 808.0 L 295.0 806.0 L 295.0 805.0 L 289.0 803.0 L 287.0 801.0 L 287.0 799.0 L 286.0 797.0 L 285.0 797.0 L 285.0 796.0 L 283.0 796.0 L 279.0 794.0 L 279.0 793.0 L 277.0 792.0 L 275.0 790.0 L 275.0 789.0 L 272.0 787.0 L 270.0 781.0 L 267.0 778.0 L 267.0 777.0 L 265.0 776.0 L 263.0 774.0 L 263.0 773.0 L 260.0 771.0 L 258.0 765.0 L 255.0 762.0 L 255.0 761.0 L 252.0 759.0 L 251.0 757.0 L 251.0 752.0 L 250.0 751.0 L 250.0 749.0 L 248.0 747.0 L 247.0 745.0 L 247.0 743.0 L 243.0 737.0 L 243.0 735.0 L 239.0 729.0 L 239.0 716.0 L 238.0 715.0 L 238.0 713.0 L 235.0 709.0 L 235.0 696.0 L 234.0 695.0 L 234.0 693.0 L 231.0 689.0 L 231.0 277.0 L 233.0 275.0 L 519.0 275.0 L 521.0 274.0 L 523.0 271.0 L 523.0 191.0 L 521.0 188.0 L 236.0 188.0 L 235.0 187.0 L 233.0 187.0 L 231.0 185.0 L 231.0 3.0 L 229.0 0.0 Z" fill="currentColor" fill-rule="evenodd" />
</svg>