<svg xmlns="http://www.w3.org/2000/svg" viewBox="0 0 127 219" width="100%" height="100%">
  <path d="M 36.75 0.85 L 36.00 1.75 L 35.85 45.25 L 35.00 45.95 L 2.00 45.75 L 1.00 46.00 L 0.35 46.75 L 0.35 64.00 L 1.00 64.80 L 1.75 65.00 L 35.00 65.00 L 35.95 65.75 L 36.00 162.50 L 37.00 168.25 L 37.00 171.75 L 38.20 177.25 L 40.15 183.75 L 44.15 192.50 L 48.15 198.50 L 50.50 201.25 L 54.25 205.00 L 57.25 207.45 L 62.00 210.50 L 68.00 213.50 L 71.00 214.65 L 72.50 214.85 L 74.00 215.65 L 76.25 215.90 L 78.00 216.60 L 85.50 217.75 L 94.75 218.00 L 100.50 217.50 L 105.75 216.65 L 107.50 215.95 L 109.75 215.65 L 111.25 214.85 L 112.75 214.65 L 119.75 211.55 L 123.50 209.40 L 126.35 207.25 L 126.75 205.75 L 126.75 188.00 L 126.40 187.10 L 125.75 187.10 L 122.25 189.65 L 116.25 193.00 L 111.75 194.90 L 106.00 196.65 L 98.50 198.00 L 91.00 198.00 L 85.25 197.00 L 80.50 195.65 L 76.25 193.80 L 73.00 191.85 L 70.00 189.50 L 66.50 186.00 L 64.10 182.75 L 61.95 179.00 L 59.85 174.00 L 59.65 172.25 L 58.85 170.50 L 58.75 168.25 L 57.75 163.75 L 57.75 66.00 L 58.05 65.30 L 58.75 65.00 L 126.00 64.90 L 126.55 64.45 L 126.75 63.75 L 126.65 46.50 L 126.00 45.95 L 125.00 45.75 L 58.50 45.85 L 57.75 44.75 L 57.65 1.50 L 57.20 1.00 L 56.25 0.75 Z" fill="currentColor" fill-rule="evenodd" />
</svg>